<?xml version="1.0" standalone="no"?>
<!DOCTYPE svg PUBLIC "-//W3C//DTD SVG 20010904//EN"
 "http://www.w3.org/TR/2001/REC-SVG-20010904/DTD/svg10.dtd">
<svg version="1.0" xmlns="http://www.w3.org/2000/svg"
 width="5209.000000pt" height="5210.000000pt" viewBox="0 0 5209.000000 5210.000000"
 preserveAspectRatio="xMidYMid meet">

<g transform="translate(0.000000,5210.000000) scale(0.100000,-0.100000)"
fill="#000000" stroke="none">
<path d="M39390 45098 c-1114 -4 -7625 -9 -14470 -12 -8804 -4 -12469 -9
-12529 -16 -301 -39 -563 -215 -677 -455 -68 -143 -64 -61 -80 -1480 -8 -709
-17 -1296 -19 -1302 -3 -10 -199 -13 -933 -13 -708 0 -931 -3 -940 -12 -17
-17 -15 -44 4 -62 14 -14 243 -16 2374 -16 2348 0 2360 0 2414 -20 69 -26 134
-83 171 -151 l30 -54 0 -1350 0 -1350 -27 -50 c-35 -66 -90 -118 -158 -149
l-55 -26 -2003 0 c-1317 0 -2010 -3 -2022 -10 -10 -6 -121 -135 -246 -288
-125 -152 -230 -277 -234 -277 -5 0 -142 119 -306 265 -164 146 -311 275 -328
288 l-30 22 -951 0 c-1095 0 -1009 -7 -1111 94 -108 108 -99 -30 -99 1481 0
1241 1 1313 18 1362 23 66 94 146 161 181 l51 27 743 5 c646 4 744 7 752 20
14 21 12 46 -4 59 -10 8 -213 11 -762 9 l-749 -3 -68 -32 c-118 -56 -204 -167
-227 -294 -7 -37 -10 -499 -8 -1370 l3 -1314 22 -55 c47 -113 147 -210 258
-248 46 -15 133 -17 1000 -20 l950 -3 338 -299 c185 -165 344 -300 353 -300
22 0 37 18 289 328 l220 271 539 1 539 0 -6 -232 c-4 -128 -7 -380 -7 -561 l0
-327 -53 -58 c-72 -79 -114 -139 -187 -267 -160 -282 -198 -344 -265 -434
-281 -376 -727 -667 -1128 -737 -141 -25 -401 -14 -622 26 -336 60 -373 64
-550 64 -180 -1 -248 -11 -391 -59 -279 -94 -582 -332 -757 -595 -171 -259
-268 -534 -308 -879 -15 -136 -6 -531 15 -664 88 -537 277 -997 596 -1449 231
-326 552 -605 933 -808 53 -28 97 -55 97 -59 0 -4 -70 -142 -155 -307 -1147
-2209 -1556 -3284 -1675 -4395 -32 -304 -37 -980 -10 -1424 113 -1867 574
-3380 1237 -4066 51 -53 93 -101 93 -107 0 -14 -128 -308 -287 -662 -184 -408
-264 -617 -323 -851 -42 -164 -58 -283 -70 -529 -15 -321 -30 -1404 -30 -2276
l0 -770 60 -29 60 -29 -2 -325 -3 -326 -39 -5 -39 -5 -77 -210 c-143 -391
-218 -558 -353 -785 -187 -315 -371 -739 -392 -905 -9 -73 11 -180 47 -255 38
-78 122 -166 193 -200 l50 -25 345 1 c384 1 416 5 514 68 104 67 132 111 296
475 189 420 285 684 302 836 17 156 -33 935 -63 972 -9 10 -24 13 -44 10 l-31
-5 33 276 c18 153 34 286 35 297 3 16 15 22 72 30 l68 10 28 135 c148 711 643
2382 1401 4720 l79 245 137 38 c276 75 487 116 759 147 203 23 669 48 681 36
5 -4 8 -132 7 -284 0 -309 -7 -384 -79 -857 -64 -423 -76 -533 -82 -800 -8
-331 9 -534 128 -1510 103 -856 316 -2482 329 -2511 7 -18 22 -24 82 -34 40
-6 91 -14 113 -18 l40 -7 12 -120 c6 -66 14 -148 17 -183 4 -34 3 -62 -1 -62
-4 1 -17 20 -28 43 -22 47 -52 59 -77 30 -19 -23 -183 -1670 -176 -1773 8
-110 71 -199 173 -246 154 -71 811 -67 1219 7 150 27 252 130 270 274 8 59 -6
118 -118 490 -193 645 -395 1194 -452 1232 -22 14 -26 14 -49 -1 l-25 -16 0
224 0 224 48 16 49 16 42 278 c227 1506 422 3329 531 4987 11 171 23 316 25
323 2 6 12 12 21 12 9 0 63 16 121 35 202 68 449 211 645 374 l96 81 1931 0
c1642 0 1931 -2 1931 -14 0 -8 187 -1855 415 -4105 228 -2250 415 -4095 415
-4101 0 -5 -359 -332 -797 -726 -439 -394 -808 -726 -821 -738 l-22 -22 0
-2364 c0 -1685 3 -2366 10 -2370 13 -8 1733 -16 7042 -31 3489 -11 3839 -10
3861 4 13 9 387 342 831 741 443 399 808 726 811 726 3 0 5 -302 5 -671 -1
-402 2 -675 7 -680 9 -9 7393 -38 9831 -39 l984 0 27 22 c14 13 896 806 1959
1762 l1932 1739 0 4566 c0 3539 -3 4570 -12 4579 -9 9 -293 12 -1214 12 -662
0 -1205 3 -1207 8 -2 4 37 387 87 852 l91 845 160 7 c88 4 183 12 210 19 33 8
216 14 525 19 471 7 476 7 574 33 300 80 515 278 581 532 14 53 31 1418 141
11045 68 6042 123 11068 121 11170 -3 170 -5 191 -29 258 -37 102 -81 174
-163 260 -144 153 -326 249 -544 287 -94 17 -1159 17 -5011 3z m4030 -139
c174 -48 297 -116 414 -228 113 -108 185 -236 207 -368 18 -103 -226 -22162
-246 -22256 -48 -230 -244 -420 -520 -503 -78 -23 -112 -27 -262 -32 -161 -4
-173 -3 -173 14 0 10 167 1573 371 3473 245 2288 369 3477 366 3518 -8 115
-76 211 -185 265 -62 31 -75 33 -182 36 l-116 4 17 81 c72 329 35 660 -105
953 -76 157 -155 272 -274 395 -168 175 -357 295 -577 368 -179 59 -266 72
-537 78 l-238 6 -1 86 c0 47 -4 124 -9 171 -6 70 24 1572 43 2122 4 95 1 132
-8 145 -13 17 -62 18 -831 23 l-819 5 -47 195 c-40 162 -48 211 -48 291 0 119
25 222 79 327 l41 77 68 0 c59 0 76 4 118 30 61 38 83 72 260 385 157 280 270
505 303 606 47 142 38 288 -25 420 -54 114 -118 155 -268 170 -75 8 -133 -4
-313 -61 -90 -29 -141 -41 -149 -34 -6 5 -14 51 -17 101 -8 119 -20 157 -57
193 -24 23 -41 29 -87 33 -48 3 -86 -5 -223 -48 -340 -106 -534 -145 -633
-126 -21 4 -56 24 -81 45 -28 24 -60 41 -83 45 -83 14 -224 -36 -310 -109 -52
-44 -123 -150 -156 -233 -104 -255 -61 -505 100 -583 40 -19 60 -22 164 -21
66 1 119 0 119 -2 0 -6 -80 -187 -101 -228 -12 -24 -68 -104 -125 -179 -134
-175 -135 -183 -34 -265 l70 -56 0 -225 c0 -236 3 -256 49 -297 11 -10 95 -42
187 -70 134 -41 170 -56 184 -76 16 -23 17 -42 8 -230 -7 -132 -14 -208 -22
-212 -6 -4 -22 -8 -35 -8 -42 0 -249 -50 -376 -91 l-123 -39 -600 0 c-681 0
-632 7 -632 -83 0 -29 -7 -301 -15 -605 l-14 -553 -65 -197 c-35 -108 -93
-303 -129 -432 -36 -129 -80 -289 -99 -355 -20 -72 -34 -110 -36 -95 -2 14 20
729 47 1590 28 861 52 1607 53 1658 3 83 1 95 -16 108 -29 21 -1983 21 -2011
0 -18 -13 -21 -83 -68 -1522 -26 -830 -50 -1510 -52 -1513 -2 -2 -61 50 -130
115 -70 66 -133 123 -142 128 -9 5 -25 4 -40 -3 -14 -7 -27 -10 -29 -8 -2 2
-11 39 -19 83 -14 73 -11 262 40 2502 43 1851 53 2427 44 2438 -17 20 -2011
21 -2028 1 -7 -9 -37 -1160 -95 -3711 -47 -2034 -87 -3700 -89 -3702 -2 -3
-78 -3 -168 -2 l-164 3 131 5315 c72 2923 134 5421 138 5551 6 210 5 239 -9
253 -15 14 -112 16 -1010 16 -858 0 -996 -2 -1008 -15 -11 -11 -16 -55 -21
-187 -4 -95 -79 -3093 -166 -6662 -88 -3569 -162 -6491 -164 -6494 -9 -8 -104
146 -164 266 -33 64 -82 174 -110 243 l-51 125 129 5990 c72 3294 130 6001
130 6016 0 62 65 58 -1025 58 -849 0 -996 -2 -1008 -14 -19 -19 -14 187 -112
-4451 -47 -2200 -88 -4073 -91 -4162 l-6 -161 -60 48 c-43 35 -226 139 -276
156 -3 1 124 6223 133 6496 5 162 3 188 -10 202 -15 14 -114 16 -1014 16 -876
0 -1000 -2 -1011 -15 -10 -12 -35 -1107 -111 -4778 -54 -2619 -98 -4821 -99
-4894 l0 -132 -55 -63 c-61 -69 -163 -218 -216 -315 -19 -35 -36 -63 -39 -63
-3 0 -4 98 -2 217 2 120 41 2592 87 5493 l84 5275 -21 18 c-19 16 -82 17
-1007 17 -803 0 -991 -2 -1005 -13 -17 -13 -20 -131 -55 -2361 -32 -1982 -40
-2349 -52 -2361 -16 -16 -272 -196 -274 -192 0 1 9 540 21 1197 12 695 17
1202 12 1213 -8 16 -66 17 -1011 17 -589 0 -1008 -4 -1016 -9 -13 -8 -19 -269
-45 -1780 -30 -1740 -31 -1770 -51 -1786 -37 -29 -222 -116 -259 -122 l-37 -6
5 59 c3 32 8 279 11 547 5 370 3 492 -6 503 -10 12 -156 14 -1014 14 -790 0
-1005 -3 -1013 -12 -7 -9 -14 -270 -21 -743 -6 -401 -14 -826 -17 -944 l-6
-214 -117 6 c-64 3 -128 10 -142 16 l-26 9 4 139 c3 116 27 1572 35 2136 2
139 0 170 -12 177 -9 6 -409 10 -1011 10 -915 0 -998 -1 -1010 -17 -11 -13
-15 -96 -20 -395 -4 -208 -9 -381 -11 -383 -3 -3 -58 73 -124 168 -137 199
-232 299 -352 371 -149 89 -357 154 -564 177 -135 15 -148 10 -148 -52 0 -22
-5 -39 -11 -39 -6 0 -88 10 -183 21 -152 19 -191 28 -346 81 -96 32 -178 62
-182 66 -3 4 30 167 74 363 l81 356 136 6 c152 6 231 25 253 60 39 59 123 335
143 467 6 40 17 54 96 131 110 105 113 122 45 224 -51 76 -90 188 -106 301
l-11 81 99 99 c83 83 106 113 140 184 58 121 76 219 70 394 -4 125 -8 152 -37
236 -44 130 -100 221 -190 310 -89 88 -175 140 -286 176 -76 25 -92 27 -320
29 -428 4 -585 38 -1063 226 -289 115 -405 148 -548 156 -158 9 -374 -35 -511
-106 l-43 -21 0 530 0 530 1383 0 c959 0 1402 3 1443 11 179 33 309 172 335
357 6 41 8 580 7 1358 l-3 1289 -22 55 c-36 87 -89 156 -155 200 -113 75 -4
70 -1549 70 -765 0 -1390 4 -1393 9 -3 4 1 583 9 1286 17 1407 13 1342 81
1477 27 54 59 95 124 160 75 74 102 93 191 137 105 50 183 75 287 90 31 5
7001 8 15487 7 l15430 -1 95 -26z m-11508 -5121 c-1 -46 -61 -2484 -132 -5418
-72 -2934 -133 -5381 -136 -5436 l-6 -101 -63 -5 c-177 -15 -304 -143 -312
-317 -2 -49 39 -488 115 -1229 65 -634 116 -1155 113 -1158 -8 -8 -1770 -4
-1775 5 -4 6 276 11509 334 13739 0 1 420 2 933 2 l932 0 -3 -82z m-2449 -668
c-1 -52 -58 -2679 -125 -5837 -68 -3159 -126 -5743 -129 -5743 -8 0 -77 247
-115 405 -93 397 -168 867 -219 1365 -44 438 -68 597 -116 780 -58 218 -132
365 -238 470 -115 114 -239 160 -431 160 -178 0 -327 -51 -477 -164 -56 -42
-74 -51 -88 -43 -10 5 -39 9 -65 9 l-47 0 4 132 c2 72 44 2023 94 4336 49
2313 91 4211 94 4218 3 10 195 12 932 10 l928 -3 -2 -95z m-4833 -1142 c0 -68
-38 -2573 -85 -5568 l-86 -5445 -56 -140 c-48 -122 -207 -559 -242 -667 l-13
-38 -784 0 -784 0 0 23 c0 12 25 1581 55 3487 30 1906 55 3538 55 3626 l0 162
882 618 c485 341 893 628 907 640 19 16 23 26 17 47 -16 66 2 77 -922 -571
l-869 -609 -3 71 c-3 78 54 3877 64 4254 l6 232 929 0 929 0 0 -122z m2390
-720 c0 -160 -131 -6493 -135 -6496 -2 -2 -28 1 -57 7 -440 95 -892 -72 -1161
-430 -78 -104 -85 -154 -32 -217 l24 -29 -24 -100 c-42 -172 -90 -283 -171
-393 -32 -44 -48 -75 -48 -95 0 -19 21 -66 52 -121 38 -65 72 -148 122 -298
38 -115 77 -218 87 -228 34 -38 57 -43 213 -48 l155 -5 3 -220 c2 -121 0 -262
-3 -313 -6 -84 -9 -92 -28 -96 -12 -2 -74 -14 -137 -26 -282 -53 -570 -183
-822 -370 -51 -38 -94 -68 -95 -66 -4 3 185 9231 193 9464 l6 172 929 0 929 0
0 -92z m7173 -1095 c2 -5 -17 -939 -44 -2078 -26 -1138 -48 -2091 -49 -2117 0
-27 -4 -48 -8 -48 -5 0 -21 55 -36 123 -57 250 -136 447 -207 518 -34 34 -45
39 -85 39 -99 0 -147 -104 -166 -360 -3 -31 -9 -20 -49 85 -53 136 -62 175
-84 367 -31 271 -94 404 -200 424 -161 30 -356 -273 -404 -629 -39 -284 28
-517 239 -835 118 -176 236 -318 430 -515 l176 -179 -149 -74 -148 -75 19 -32
c162 -265 367 -681 551 -1117 l61 -146 0 -145 c0 -80 -3 -234 -7 -342 l-6
-197 -933 0 -932 0 4 133 c3 72 41 1718 85 3657 44 1939 81 3531 84 3538 3 9
198 12 929 12 509 0 927 -3 929 -7z m-20008 -182 c24 -10 48 -28 54 -38 5 -11
17 -100 25 -199 23 -258 57 -381 135 -494 l31 -45 -48 -40 c-114 -96 -118
-103 -157 -290 -23 -107 -93 -321 -110 -335 -20 -16 -196 -31 -285 -25 -42 3
-81 2 -89 -4 -14 -9 -190 -759 -191 -809 0 -13 7 -36 15 -52 15 -29 27 -35
203 -95 45 -16 82 -32 82 -36 0 -12 -77 -62 -155 -102 -163 -81 -356 -119
-610 -119 -198 1 -296 16 -445 67 -130 46 -230 96 -349 176 l-94 62 89 32
c400 143 702 447 842 845 60 171 103 410 82 451 -7 13 -55 64 -107 113 -95 90
-136 146 -154 212 -23 80 36 196 105 209 21 4 50 -1 85 -15 94 -37 130 -14
180 113 82 207 176 339 265 371 48 18 219 52 326 65 105 13 222 6 275 -18z
m8075 -498 c-1 -349 -40 -2277 -47 -2284 -16 -15 -1498 -1051 -1510 -1056 -10
-4 -13 10 -13 54 0 180 -149 212 -311 66 l-39 -35 0 88 c1 84 58 3286 59 3292
1 1 420 2 931 2 l930 0 0 -127z m16421 -551 c14 -9 72 -56 130 -103 57 -48
147 -114 199 -148 121 -78 138 -79 245 -11 44 28 91 53 103 57 36 9 93 -13
135 -51 33 -30 37 -39 37 -83 0 -27 -11 -83 -25 -123 -14 -40 -25 -81 -25 -90
0 -20 86 -103 155 -150 28 -18 51 -34 53 -35 1 -1 -18 -44 -42 -96 -71 -152
-98 -303 -77 -437 16 -104 140 -603 155 -627 13 -19 78 -48 266 -121 50 -19
79 -35 70 -38 -40 -15 -277 -67 -371 -80 -123 -18 -380 -21 -496 -5 -99 13
-516 90 -523 96 -2 2 11 16 30 31 52 40 88 82 109 127 16 33 21 81 30 278 12
265 7 297 -51 338 -16 12 -102 43 -191 70 -93 29 -168 57 -175 67 -11 13 -13
64 -9 247 l4 230 -41 36 c-23 20 -54 48 -70 61 l-28 24 96 127 c94 124 134
190 176 296 53 134 73 152 131 113z m-2071 -1039 c-1 -27 -27 -856 -59 -1843
l-59 -1795 -46 -118 c-76 -198 -140 -311 -226 -398 -62 -64 -84 -80 -129 -93
-70 -21 -85 -20 -163 4 -181 56 -454 303 -827 750 -151 181 -225 264 -369 411
l-84 86 47 1489 c25 819 48 1504 51 1522 l5 32 929 0 930 0 0 -47z m-25480
-153 c79 -10 256 -46 342 -70 l37 -11 -26 -67 c-163 -431 -447 -1209 -458
-1256 -7 -34 -18 -86 -25 -118 -9 -46 -15 -57 -35 -62 -28 -7 -30 -11 -49
-151 -37 -266 -41 -328 -41 -630 0 -249 4 -333 18 -425 93 -596 335 -956 756
-1126 135 -55 252 -79 339 -70 35 4 133 29 216 55 214 69 212 69 248 34 69
-65 192 -287 219 -395 l11 -48 -86 -99 c-179 -205 -422 -421 -623 -554 -571
-377 -1141 -436 -1740 -181 -394 168 -696 450 -887 831 -135 269 -214 558
-246 900 -6 62 -13 119 -16 127 -9 22 -42 26 -66 7 -21 -18 -21 -20 -9 -150
56 -611 278 -1115 642 -1454 l89 -83 -40 -129 c-113 -364 -116 -419 -34 -556
l34 -56 -49 -134 c-78 -216 -254 -756 -326 -999 -296 -1001 -400 -1703 -560
-3745 -87 -1122 -108 -1314 -166 -1550 -29 -117 -111 -375 -120 -375 -10 0
-146 149 -205 226 -553 708 -941 2047 -1059 3654 -58 796 -37 1504 60 2035
181 988 609 2019 1723 4155 149 286 194 382 232 495 121 358 281 657 535 995
39 52 110 155 158 228 334 505 679 748 1082 761 22 0 79 -4 125 -9z m791 -86
l127 -6 6 -26 c7 -31 80 -93 206 -174 239 -155 467 -230 745 -244 356 -17 675
63 887 225 l72 54 195 -22 c108 -13 200 -27 205 -31 9 -9 57 -919 49 -932 -2
-5 -218 -8 -480 -8 -463 0 -478 -1 -520 -21 -51 -25 -109 -90 -124 -139 -6
-19 -63 -359 -127 -754 -88 -540 -121 -721 -132 -727 -8 -5 -42 -21 -75 -36
-83 -39 -178 -130 -214 -207 -35 -73 -57 -182 -66 -326 -12 -198 -23 -224
-125 -310 -48 -40 -49 -41 -75 -24 -39 25 -121 13 -303 -48 -191 -63 -255 -67
-392 -23 -172 55 -318 143 -435 261 -335 338 -458 978 -345 1796 21 149 36
191 475 1371 l137 367 92 -5 c50 -3 148 -8 217 -11z m5609 -171 c-1 -215 -38
-2225 -42 -2228 -6 -6 -202 61 -287 99 -103 45 -268 139 -376 214 -130 89
-315 242 -315 260 0 9 16 119 36 244 41 258 41 293 -8 352 -53 64 -64 66 -382
66 l-285 0 -52 63 c-29 34 -78 97 -110 139 l-57 77 4 298 c3 164 7 353 10 421
l6 122 929 0 929 0 0 -127z m-2853 17 c235 -56 427 -160 541 -291 21 -24 90
-118 152 -209 63 -91 172 -241 242 -335 l128 -170 -612 -3 c-336 -1 -613 -1
-614 1 -3 2 -54 991 -54 1034 0 10 135 -7 217 -27z m7867 -3798 c-47 -2990
-55 -3643 -45 -3656 12 -14 100 -16 812 -16 440 0 799 -3 799 -6 0 -14 -93
-231 -136 -315 -91 -183 -163 -263 -313 -348 -301 -171 -1071 -435 -1886 -646
-99 -26 -184 -51 -190 -56 -5 -5 -57 -9 -115 -9 -92 0 -117 4 -186 29 -114 41
-204 55 -331 49 -91 -5 -123 -11 -198 -39 l-90 -34 -2293 -2 -2292 -3 4 22
c35 161 94 806 104 1143 l7 210 640 3 c418 1 643 6 649 12 9 9 64 2736 65
3277 l1 183 28 6 c15 3 81 19 146 34 66 16 121 28 121 27 1 -1 -11 -792 -26
-1757 -19 -1221 -24 -1759 -17 -1767 8 -10 220 -13 1013 -13 862 0 1004 2
1015 14 9 11 20 550 46 2168 18 1184 34 2235 34 2336 0 148 3 182 14 182 33 0
181 86 236 137 l60 55 0 -103 c0 -57 -18 -1152 -41 -2432 -31 -1797 -38 -2332
-28 -2343 16 -20 2010 -21 2027 -1 8 9 30 1127 71 3507 34 1922 62 3520 64
3550 l2 55 139 98 c76 53 141 95 143 93 3 -2 -21 -1642 -53 -3644z m18776
3371 c-1 -184 -38 -1485 -43 -1489 -3 -3 -10 19 -17 48 -30 126 -86 303 -137
433 -206 523 -502 850 -888 982 -92 31 -220 53 -310 53 -104 0 -132 7 -138 36
l-4 24 768 0 769 0 0 -87z m-19105 -250 c-7 -272 -115 -6515 -115 -6634 l0
-69 -935 0 -934 0 5 243 c3 133 23 1239 44 2457 l38 2216 34 64 c31 62 33 71
34 175 l1 109 59 34 c152 87 359 173 484 202 83 19 173 65 233 120 65 59 87
101 87 165 0 125 -111 181 -343 174 -64 -2 -116 -1 -115 3 4 9 1410 997 1421
998 5 0 6 -116 2 -257z m-2361 -100 c-2 -170 -7 -408 -10 -530 l-6 -223 -92 0
c-146 0 -236 -34 -334 -124 -25 -23 -99 -105 -164 -183 -120 -144 -203 -224
-302 -295 l-54 -38 -41 74 c-22 40 -48 77 -57 80 -11 4 -81 -24 -193 -78 -97
-46 -216 -98 -264 -115 -93 -32 -251 -68 -326 -73 l-45 -3 3 245 c1 135 6 481
11 770 5 289 10 587 10 663 l0 137 935 0 934 0 -5 -307z m13435 271 c42 -53
82 -224 96 -414 8 -96 45 -221 112 -380 48 -113 69 -140 113 -140 73 0 84 23
86 180 2 95 8 141 23 192 12 37 26 70 31 73 45 28 124 -138 195 -410 32 -120
170 -843 163 -850 -2 -1 -86 -44 -187 -95 l-185 -92 -134 137 c-257 264 -450
519 -558 740 -111 227 -129 454 -58 705 55 192 179 380 251 380 22 0 38 -8 52
-26z m4650 -101 c0 -5 -37 -26 -81 -48 -190 -95 -426 -261 -529 -373 -73 -80
-177 -234 -239 -354 -25 -48 -49 -88 -54 -88 -5 0 -6 76 -2 173 3 94 9 287 12
427 4 140 8 258 11 263 2 4 202 7 444 7 241 0 439 -3 438 -7z m-21486 -513
c13 -11 28 -31 31 -45 4 -14 -134 -891 -325 -2067 -261 -1616 -335 -2050 -350
-2075 -11 -18 -35 -41 -53 -52 -33 -21 -39 -21 -1508 -21 -1456 0 -1476 0
-1501 20 -13 11 -27 30 -31 44 -3 13 41 314 99 670 58 355 105 647 105 648 0
2 64 3 143 4 154 0 248 17 417 76 210 73 610 305 720 418 64 66 102 145 107
228 4 59 2 73 -24 121 -17 32 -45 66 -71 84 -71 52 -109 49 -561 -33 -260 -47
-406 -69 -428 -65 -38 7 -97 55 -119 96 -25 50 -34 -14 152 1141 63 389 118
717 123 730 10 25 53 68 86 86 14 8 438 11 1491 12 1452 0 1472 0 1497 -20z
m4137 -139 c17 -33 11 -109 -16 -189 -51 -155 -119 -227 -290 -309 l-114 -55
-32 20 c-18 11 -60 28 -92 37 -116 34 -224 -2 -323 -108 -128 -138 -175 -326
-110 -442 59 -105 215 -155 205 -66 -2 20 -14 31 -51 49 -69 33 -89 70 -85
157 5 82 39 160 101 231 117 133 257 130 383 -10 30 -33 72 -94 92 -135 33
-67 37 -83 37 -151 -1 -95 -24 -142 -128 -261 -82 -94 -156 -149 -245 -181
-82 -30 -253 -30 -375 0 -111 28 -169 27 -282 -2 -49 -13 -93 -21 -97 -17 -7
7 -213 397 -223 422 -4 12 12 29 61 65 101 72 204 173 334 330 186 223 220
242 434 254 110 7 160 14 226 35 151 48 276 121 380 220 122 117 186 149 210
106z m515 -277 c47 -23 60 -43 51 -77 -18 -73 -124 -143 -281 -186 -135 -36
-298 -104 -429 -177 -54 -30 -102 -52 -107 -47 -4 4 -19 30 -33 58 -15 27 -34
57 -42 66 -14 16 -8 21 96 74 125 65 188 119 241 209 32 56 38 61 88 73 148
38 347 41 416 7z m-4519 -335 c208 -166 463 -318 669 -399 225 -87 388 -115
644 -107 272 7 434 49 708 182 l151 73 204 -385 c112 -212 204 -391 206 -397
8 -35 -331 -388 -483 -503 -365 -276 -793 -449 -1300 -525 -137 -20 -521 -17
-665 5 -194 30 -511 116 -544 148 -10 9 304 1979 315 1979 3 0 46 -32 95 -71z
m2926 -889 c46 -12 134 -24 196 -27 l112 -6 0 -81 c0 -45 -16 -1073 -35 -2286
-19 -1213 -35 -2208 -35 -2212 0 -5 -418 -8 -930 -8 l-930 0 0 198 c0 431 50
3276 57 3282 4 4 33 16 63 25 352 114 753 371 1020 652 101 107 250 288 250
304 0 5 -13 36 -30 69 -16 33 -30 61 -30 64 0 3 94 29 145 40 41 8 66 6 147
-14z m-6487 -27 c-40 -231 -40 -252 1 -334 24 -48 65 -89 117 -115 65 -34 122
-29 532 46 246 45 404 70 429 67 47 -7 92 -47 107 -98 9 -28 8 -48 -5 -92 -24
-81 -92 -151 -255 -259 -348 -230 -727 -360 -965 -330 -67 9 -71 8 -148 -30
-44 -21 -83 -38 -88 -38 -5 0 -12 10 -16 23 -12 40 -84 181 -125 244 l-41 62
71 66 c99 94 109 120 126 318 25 300 59 380 200 470 53 34 66 34 60 0z m28995
-140 c202 -54 367 -137 525 -264 253 -204 436 -519 490 -844 21 -123 21 -328
1 -445 -22 -126 -813 -3770 -841 -3875 -174 -641 -712 -1171 -1355 -1335 -225
-58 -47 -53 -2400 -57 -1519 -3 -2190 -1 -2248 7 -170 22 -329 98 -454 218
-177 170 -261 365 -260 607 2 313 179 595 457 730 166 81 136 78 820 85 658 8
658 8 833 66 354 118 651 416 772 774 12 35 140 613 286 1284 145 672 276
1263 290 1315 71 262 219 563 389 790 399 533 975 875 1630 966 75 10 206 13
525 11 l425 -2 115 -31z m-14522 -155 c16 -20 163 -420 164 -446 0 -13 -6 -31
-15 -39 -19 -19 -64 -20 -82 -2 -16 17 -165 417 -165 444 0 44 71 75 98 43z
m-995 -718 c11 0 40 9 64 21 74 36 125 15 158 -64 46 -110 -10 -256 -119 -312
-33 -18 -59 -38 -62 -50 -12 -47 89 -213 167 -275 57 -45 138 -85 192 -95 20
-4 39 -11 42 -14 2 -4 11 -43 20 -86 39 -187 130 -451 241 -702 43 -94 45
-103 32 -130 -22 -45 -161 -93 -332 -114 -109 -13 -194 -4 -510 55 -190 36
-232 47 -246 64 -16 19 -17 54 -12 410 4 295 2 397 -8 426 -18 56 -51 66 -218
66 -96 0 -143 4 -154 13 -8 6 -45 102 -83 212 -44 130 -85 230 -116 287 l-49
86 45 66 c66 94 120 216 156 352 17 66 33 124 35 131 2 8 143 -56 370 -167
201 -99 375 -180 387 -180z m1302 75 c46 -93 59 -168 59 -325 -1 -164 -24
-318 -80 -540 -50 -196 -137 -473 -201 -644 l-57 -148 -80 7 c-45 4 -82 7 -83
8 -1 1 3 207 9 457 l11 455 42 48 c23 27 62 82 85 123 92 160 129 292 137 481
5 114 8 133 23 138 10 3 25 14 35 25 18 20 19 20 47 -7 16 -15 40 -50 53 -78z
m-11521 -194 c292 -95 520 -126 851 -117 127 3 252 9 279 14 l49 9 -6 -296
c-4 -163 -16 -870 -27 -1571 -11 -701 -23 -1326 -26 -1387 l-6 -113 -598 0
-597 0 -7 61 c-3 34 -6 96 -6 138 0 316 -124 1183 -240 1689 -35 148 -39 178
-30 215 6 23 57 337 115 697 114 709 112 700 122 700 3 0 61 -18 127 -39z
m-3468 -148 c-3 -10 -41 -245 -86 -523 -44 -278 -83 -515 -85 -526 -4 -18 -34
-31 -170 -78 -309 -106 -559 -226 -921 -443 -340 -205 -476 -252 -744 -260
-182 -6 -288 9 -446 62 -241 80 -457 225 -580 388 -69 92 -87 139 -81 212 6
59 100 392 116 408 5 5 44 -15 87 -43 175 -115 462 -229 709 -282 97 -20 136
-23 335 -23 196 0 238 3 330 23 425 92 844 337 1219 711 169 168 261 281 268
328 5 35 25 63 46 63 4 0 6 -8 3 -17z m21389 -234 c33 -61 97 -168 142 -238
l82 -126 -151 -3 c-83 -1 -152 -1 -154 1 -6 6 9 477 15 477 3 -1 33 -50 66
-111z m4073 -21 c31 -31 4 -81 -132 -243 -94 -111 -347 -367 -451 -455 -27
-24 -51 -46 -53 -51 -2 -4 4 -45 13 -91 9 -45 19 -134 22 -195 l6 -113 -358 0
c-223 0 -355 4 -349 9 5 5 84 57 176 114 163 102 351 230 394 269 14 13 20 27
16 43 -3 19 4 32 34 57 226 195 451 430 583 611 42 58 72 72 99 45z m-10994
-440 c-2 -128 -7 -298 -10 -378 l-6 -144 -38 90 c-82 198 -180 512 -180 580 0
19 5 24 26 24 34 0 142 28 174 45 14 8 28 14 32 15 4 0 5 -105 2 -232z m7211
-6 c6 -4 44 -50 83 -104 111 -146 266 -330 396 -464 64 -67 116 -124 116 -125
0 -2 -552 -4 -1227 -4 -1396 0 -1286 7 -1387 -85 -75 -69 -109 -147 -108 -249
0 -42 152 -2171 336 -4731 185 -2560 337 -4672 338 -4694 l2 -38 -134 -70
c-228 -118 -376 -227 -437 -323 -30 -48 -43 -56 -43 -27 0 9 -47 481 -104
1047 -999 9840 -979 9639 -967 9685 23 87 97 160 184 180 41 10 2939 12 2952
2z m8865 -28 c61 -35 104 -90 121 -154 10 -39 -61 -718 -575 -5520 -322 -3011
-589 -5495 -594 -5520 l-7 -45 -84 0 -83 0 -19 72 c-46 184 -178 382 -329 496
l-35 26 273 3558 273 3557 385 1774 c211 976 387 1779 390 1784 4 7 49 9 119
6 101 -4 116 -7 165 -34z m-27461 -909 c22 -104 56 -287 75 -405 137 -824 156
-1298 85 -2090 -124 -1394 -467 -2552 -980 -3310 -269 -398 -579 -682 -934
-856 -122 -59 -283 -120 -293 -110 -2 3 5 182 17 398 84 1575 172 4292 196
6063 3 231 8 448 11 483 l6 62 832 0 833 0 44 23 44 24 13 -46 c6 -25 30 -131
51 -236z m10141 244 c0 -58 34 -113 84 -138 25 -13 143 -40 296 -68 226 -42
271 -47 395 -47 155 0 246 16 376 65 101 39 149 92 149 166 0 24 2 25 38 19
20 -3 57 -6 81 -6 37 0 42 -2 36 -17 -20 -50 -57 -243 -67 -349 -36 -378 100
-682 395 -878 156 -104 318 -167 562 -220 l150 -33 6 -64 c4 -35 9 -255 13
-489 l7 -425 -373 0 c-428 0 -542 -11 -793 -75 -192 -48 -314 -93 -500 -185
-606 -299 -1064 -825 -1280 -1470 -30 -90 -87 -331 -185 -785 -78 -360 -143
-662 -146 -671 -4 -15 -11 -15 -78 2 -74 19 -166 56 -241 96 -104 57 -220 178
-266 277 l-18 40 56 34 c168 101 386 305 489 457 164 241 231 476 221 770 -7
174 -21 247 -87 445 -47 142 -73 249 -85 361 l-7 56 54 64 c217 257 438 619
562 921 41 100 45 133 16 148 -38 20 -56 3 -95 -93 -105 -255 -272 -548 -442
-772 -93 -123 -100 -130 -130 -127 -29 3 -44 -10 -184 -155 -301 -311 -455
-460 -518 -503 -81 -54 -216 -121 -301 -149 -175 -57 -112 -54 -1427 -58
l-1213 -4 0 180 c0 156 2 181 18 199 12 15 72 35 212 72 944 249 1673 506
1952 689 201 131 298 303 511 906 256 724 369 970 555 1210 230 298 631 533
1068 625 133 28 134 28 134 -21z m7967 -103 c4 -3 -38 -1791 -42 -1803 -4 -10
-152 -13 -700 -13 -382 0 -695 1 -695 3 0 1 -25 346 -55 766 -30 421 -55 787
-55 815 1 115 81 214 192 235 33 7 1346 3 1355 -3z m453 -8 c0 -7 -14 -431
-30 -942 -23 -695 -27 -932 -19 -942 9 -12 104 -14 530 -14 286 0 519 -4 519
-8 0 -5 -53 -37 -117 -72 -461 -248 -936 -545 -1278 -800 -370 -275 -712 -606
-794 -769 -143 -283 -65 -716 233 -1296 161 -314 411 -706 699 -1097 99 -134
137 -194 137 -214 0 -15 -5 -79 -11 -141 l-12 -113 -708 0 c-390 0 -709 2
-709 5 0 2 -72 1006 -160 2231 -88 1224 -160 2237 -160 2250 l0 24 724 0 c645
0 726 2 740 16 11 11 16 35 16 82 0 37 9 438 20 892 11 454 20 846 20 873 l0
47 180 0 c137 0 180 -3 180 -12z m840 -85 c242 -221 372 -283 590 -283 134 0
227 25 384 105 70 36 131 64 133 61 8 -8 -36 -1259 -44 -1266 -5 -3 -51 -26
-103 -50 -52 -24 -209 -99 -349 -167 l-254 -123 -581 0 -581 0 3 82 c18 545
52 1641 52 1683 l0 55 323 0 322 -1 105 -96z m1536 -20 c-3 -65 -11 -352 -17
-638 -6 -286 -15 -524 -19 -529 -8 -8 -318 -146 -329 -146 -11 0 34 1273 44
1277 6 3 69 37 140 78 72 40 143 73 159 74 l28 1 -6 -117z m834 97 c0 -43 -40
-222 -69 -308 -74 -221 -188 -399 -381 -593 -123 -124 -305 -278 -315 -267 -3
2 2 254 10 559 8 305 15 571 15 592 l0 37 370 0 c361 0 370 0 370 -20z
m-24270 -626 c42 -154 71 -228 121 -312 44 -72 136 -187 203 -252 25 -24 46
-51 46 -59 0 -20 -30 -51 -50 -51 -23 0 -195 179 -249 259 -65 95 -117 214
-155 353 -47 172 -49 194 -13 207 43 17 59 -7 97 -145z m-2595 36 c17 -19 17
-23 3 -53 -23 -48 -165 -213 -255 -297 -86 -80 -196 -166 -288 -225 -62 -40
-254 -137 -292 -149 -34 -11 -63 10 -63 44 0 28 7 33 115 85 233 112 472 301
626 494 93 117 98 121 117 121 11 0 27 -9 37 -20z m26044 -823 c6 -29 23 -71
38 -93 141 -211 351 -334 625 -365 87 -9 142 -9 314 5 386 30 357 29 350 11
-10 -26 -74 -120 -93 -137 -10 -9 -250 -110 -533 -224 l-515 -208 -460 -6
-460 -6 -95 -32 c-131 -44 -248 -113 -341 -200 -98 -92 -141 -150 -204 -274
l-50 -99 -80 -35 c-263 -113 -468 -359 -619 -743 -130 -330 -229 -887 -341
-1911 -14 -129 -27 -238 -28 -242 -3 -11 -248 328 -392 541 -183 273 -299 472
-420 716 -191 387 -263 635 -252 875 6 124 25 196 75 282 63 109 318 365 562
565 592 484 1605 1065 2695 1545 110 48 203 88 206 88 3 0 11 -24 18 -53z
m-8017 -17 c87 -11 203 -23 258 -26 l100 -7 0 -153 c0 -84 -3 -159 -6 -168 -5
-14 -39 -16 -275 -16 l-269 0 0 163 c0 89 -3 179 -7 200 -5 36 -5 38 18 32 13
-3 95 -14 181 -25z m789 -232 c-3 -185 -2 -203 15 -215 14 -10 194 -13 944
-13 l926 0 98 -967 c54 -533 156 -1539 227 -2238 71 -698 129 -1278 129 -1287
0 -17 -43 -18 -761 -18 l-760 0 6 43 c3 23 57 526 120 1117 124 1157 122 1127
75 1221 -29 56 -95 119 -155 149 -49 25 -55 25 -326 28 l-276 3 -6 112 c-20
344 -173 681 -427 936 -196 198 -456 340 -721 395 -39 8 -73 16 -75 18 -2 2
-4 112 -4 243 l-1 240 303 3 c271 2 304 4 316 19 8 12 12 71 12 210 l0 192
148 4 c81 1 158 4 172 5 l25 2 -4 -202z m8249 -535 c0 -22 -190 -125 -305
-166 -109 -39 -275 -69 -244 -44 6 6 533 216 542 217 4 0 7 -3 7 -7z m-9224
-278 c438 -75 819 -365 1008 -766 111 -235 156 -499 127 -738 -10 -79 -764
-3588 -836 -3888 -90 -377 -323 -753 -622 -1002 -252 -212 -522 -344 -855
-418 l-123 -27 -2170 -4 c-1397 -2 -2197 1 -2245 7 -185 24 -343 103 -476 235
-171 172 -255 392 -241 631 14 223 99 400 267 558 64 60 104 88 183 127 177
87 142 83 832 90 650 7 648 7 815 61 360 116 673 428 786 783 13 43 144 629
289 1301 146 673 277 1263 291 1311 40 139 92 269 164 414 360 718 1056 1216
1850 1324 156 21 835 22 956 1z m-3483 -614 c20 -8 25 -18 31 -67 9 -78 39
-192 86 -329 38 -113 67 -234 72 -310 l3 -40 -673 -3 c-620 -2 -760 3 -624 23
146 21 321 84 456 163 114 68 228 169 431 382 99 103 183 189 187 189 4 1 18
-3 31 -8z m17013 -88 c-6 -57 -246 -3189 -246 -3211 0 -9 -298 -12 -1190 -12
l-1190 0 0 1070 0 1070 490 0 c389 0 512 3 601 16 592 82 1121 434 1432 952
31 51 64 111 74 132 26 56 36 49 29 -17z m-30626 22 c0 -9 18 -194 40 -413
104 -1050 206 -2215 239 -2757 6 -93 14 -200 17 -237 l5 -68 -113 0 c-413 -1
-1043 -89 -1380 -193 -27 -8 -48 -11 -48 -6 0 23 994 3020 1188 3581 34 99 52
131 52 93z m23838 -94 c-9 -71 -9 -117 0 -194 45 -380 308 -687 677 -789 76
-21 104 -22 508 -26 325 -2 427 -6 424 -15 -3 -7 -34 -82 -70 -167 -297 -714
-721 -1995 -1131 -3425 -63 -220 -140 -497 -171 -615 -31 -118 -58 -220 -60
-226 -6 -19 -321 -27 -784 -20 -234 4 -448 9 -475 12 l-49 6 7 187 c45 1227
238 3256 386 4052 130 698 347 1105 683 1285 34 18 63 32 64 30 1 -1 -3 -44
-9 -95z m-14258 -45 c36 -8 130 -38 210 -68 l145 -53 6 -60 c4 -33 7 -117 8
-188 l1 -127 -722 2 -723 3 -3 21 c-9 62 395 316 682 429 138 54 270 68 396
41z m4226 -718 c-18 -203 -88 -407 -194 -563 l-41 -60 -2708 0 -2708 0 -50
-25 c-103 -50 -179 -155 -190 -262 -4 -31 145 -2146 349 -4977 196 -2709 356
-4939 356 -4957 0 -28 -8 -38 -69 -83 -81 -60 -138 -120 -186 -196 l-36 -55
-122 0 c-67 0 -131 -3 -142 -6 -11 -3 -28 1 -37 8 -16 11 -87 695 -573 5486
-305 3011 -555 5498 -555 5528 0 110 70 201 180 235 14 4 1534 8 3379 8 l3354
1 -7 -82z m5089 55 c87 -47 135 -123 135 -215 0 -100 -1172 -11012 -1185
-11026 -9 -10 -66 -11 -279 -6 -225 6 -271 10 -288 23 -20 17 -19 34 346 4796
202 2629 369 4798 372 4820 3 22 75 362 159 755 136 629 174 818 175 868 0 11
51 13 263 10 246 -3 264 -4 302 -25z m8243 -1376 l2 -1067 -685 2 -686 3 -253
550 c-139 303 -267 575 -284 606 -18 31 -32 62 -32 70 0 31 212 577 326 841
l29 68 790 -3 790 -2 3 -1068z m-20284 631 c3 -18 42 -395 86 -838 44 -443 82
-817 85 -832 l5 -28 -1875 0 -1875 0 98 113 c315 368 587 869 782 1443 28 82
52 155 55 162 3 9 276 12 1319 12 l1315 0 5 -32z m4654 -25 l1973 -6 -58 -60
c-85 -87 -195 -174 -287 -229 -45 -26 -89 -55 -98 -64 -15 -15 -54 -18 -265
-25 -951 -32 -1976 -188 -2694 -409 -661 -204 -1120 -449 -1436 -767 l-112
-113 -213 0 -213 0 -52 728 c-41 571 -50 736 -42 766 23 82 85 147 163 172 50
16 558 17 3334 7z m14203 -1768 c439 -957 538 -1180 527 -1190 -36 -34 -1020
-595 -1228 -700 l-54 -28 -168 174 c-92 96 -226 235 -297 309 l-129 135 104
355 c192 650 391 1284 570 1812 120 354 113 333 125 321 5 -5 253 -540 550
-1188z m-17280 -82 c-128 -256 -187 -596 -198 -1141 -3 -161 -7 -291 -9 -289
-2 2 -26 318 -53 702 -28 385 -53 724 -56 753 l-5 52 180 0 180 0 -39 -77z
m9396 25 c-3 -29 -110 -1419 -238 -3088 -127 -1669 -235 -3039 -239 -3044 -5
-4 -582 -5 -1289 -1 l-1281 8 0 1633 0 1634 470 0 c505 0 597 6 783 55 348 90
643 256 901 505 240 232 426 533 520 841 14 46 93 397 176 779 83 382 153 703
156 713 3 9 15 17 26 17 19 0 20 -4 15 -52z m2597 30 c5 -23 347 -3393 346
-3414 0 -6 -415 -384 -922 -840 -507 -456 -953 -858 -990 -893 l-68 -63 0
-479 0 -479 -285 0 c-248 0 -285 2 -285 15 0 19 648 6074 656 6133 l6 42 769
0 769 0 4 -22z m2332 -20 c-16 -118 -78 -942 -105 -1407 -11 -178 -24 -327
-28 -332 -4 -4 -246 -222 -538 -483 -489 -439 -530 -474 -533 -449 -5 56 -192
2680 -192 2696 0 16 55 17 701 17 l700 0 -5 -42z m4382 -810 l-3 -853 -386 -3
c-358 -2 -387 -1 -401 15 -9 10 -59 89 -111 177 l-96 159 87 54 c111 69 135
91 128 118 -3 12 -123 277 -267 590 -143 314 -263 576 -266 583 -4 9 131 12
656 12 l661 0 -2 -852z m3232 849 c0 -2 -29 -383 -65 -847 -36 -465 -65 -848
-65 -852 0 -5 -504 -8 -1120 -8 l-1120 0 0 855 0 855 1185 0 c652 0 1185 -1
1185 -3z m-5937 -1695 c-97 -1 -178 -1 -180 2 -2 2 5 37 17 78 12 40 31 105
42 143 l20 70 139 -145 138 -145 -176 -3z m1794 20 l161 -267 -27 -17 c-19
-12 -117 -31 -312 -59 -156 -22 -293 -47 -305 -54 -20 -13 -27 -4 -143 162
-93 133 -120 178 -110 184 176 103 557 318 564 318 6 0 83 -120 172 -267z
m-1407 -227 c72 -72 112 -105 128 -105 26 0 91 32 280 136 73 41 143 74 157
74 19 0 45 -32 148 -179 l124 -179 -186 -174 c-370 -347 -524 -480 -691 -598
-401 -283 -634 -489 -696 -616 -25 -50 -26 -62 -21 -133 6 -83 44 -193 95
-280 61 -104 190 -200 330 -246 49 -16 52 -18 52 -51 l0 -34 3021 0 c1919 0
3019 -3 3017 -10 -1 -5 -241 -224 -533 -486 l-529 -476 -741 6 c-407 4 -2785
11 -5285 17 -2500 6 -4546 12 -4548 14 -4 3 1824 1649 1836 1653 4 1 16 -82
26 -185 10 -104 25 -200 33 -216 7 -15 30 -39 51 -53 20 -14 59 -40 85 -59 86
-61 148 -73 450 -90 797 -44 1572 -36 1965 21 250 36 429 113 550 235 91 93
106 169 69 350 -14 68 -40 203 -57 299 -33 188 -110 542 -135 627 -15 51 -63
103 -93 103 -16 0 -14 29 6 130 l18 85 140 6 c181 8 202 13 210 47 10 46 104
405 115 440 l11 32 246 0 247 0 105 -105z m2318 -592 l-3 -698 -22 -3 c-20 -3
-23 1 -23 31 0 49 -17 91 -125 314 -53 109 -169 353 -258 543 -127 269 -167
346 -183 348 -11 2 -31 23 -46 50 -15 26 -37 62 -49 80 l-21 32 366 0 366 0
-2 -697z m3092 680 c0 -40 -112 -1478 -116 -1482 -2 -2 -30 8 -61 22 -32 14
-92 36 -133 49 l-75 23 -922 3 -923 3 0 699 0 700 1115 0 c1055 0 1115 -1
1115 -17z m3120 13 c0 -2 -107 -98 -237 -213 -299 -262 -969 -866 -1813 -1633
-361 -327 -666 -604 -678 -614 l-22 -19 0 117 0 116 88 -2 c96 -3 129 10 151
59 9 20 241 2113 241 2177 0 14 114 16 1135 16 624 0 1135 -2 1135 -4z m90
-4536 l0 -4480 -1898 -1707 c-1044 -940 -1905 -1714 -1915 -1722 -16 -13 -17
228 -17 4457 l0 4470 733 669 c1710 1562 3074 2793 3092 2793 3 0 5 -2016 5
-4480z m-10822 4263 c-5 -93 -6 -178 -3 -189 6 -28 18 -32 125 -40 l91 -7 -5
-26 c-3 -14 -15 -75 -26 -136 -28 -148 -27 -145 -59 -145 -16 0 -105 -39 -202
-90 -96 -49 -235 -117 -309 -151 -183 -83 -633 -279 -641 -279 -3 0 -9 51 -13
113 -4 61 -9 123 -12 137 -4 23 48 73 526 503 292 262 532 477 533 477 1 0 -1
-75 -5 -167z m4058 -389 c107 -225 194 -414 194 -419 0 -6 -129 -78 -287 -160
l-288 -150 -500 -6 c-535 -5 -532 -5 -675 -61 -237 -92 -459 -324 -531 -553
l-24 -76 -45 5 c-67 9 -184 51 -275 99 l-80 42 -9 61 c-7 52 -5 66 12 100 55
107 269 294 646 563 l128 92 170 -111 c93 -60 177 -110 186 -110 30 0 44 16
40 46 -3 25 -23 42 -158 131 -85 56 -155 104 -155 106 0 6 179 157 187 157 4
0 73 -43 153 -95 145 -94 181 -109 205 -80 27 33 3 59 -140 150 -77 50 -140
93 -140 96 0 3 57 59 128 125 70 65 184 174 253 241 70 68 133 123 140 124 8
0 158 22 334 48 176 27 324 48 329 47 5 -1 96 -186 202 -412z m-3029 141 c2
-1 -7 -53 -20 -115 l-23 -114 -79 -49 c-195 -118 -271 -142 -430 -134 -100 5
-184 24 -219 50 -18 13 -18 19 14 188 17 96 34 177 36 180 3 6 715 0 721 -6z
m-15347 -43 c0 -18 33 -269 56 -432 153 -1069 463 -2457 858 -3845 47 -165 82
-302 78 -306 -4 -4 -149 -134 -322 -290 -185 -166 -316 -277 -317 -268 -2 8
-84 1146 -183 2529 -99 1383 -182 2539 -185 2568 -4 34 -3 52 4 52 6 0 11 -4
11 -8z m15413 -279 c17 -20 85 -316 142 -616 19 -103 35 -189 35 -191 0 -9
-168 -78 -270 -111 -503 -162 -1072 -236 -1725 -221 -278 6 -502 22 -685 51
-126 20 -240 45 -240 54 0 17 46 79 93 124 104 102 297 208 691 383 199 88
210 91 225 74 9 -10 71 -59 138 -109 123 -92 158 -106 183 -76 25 30 0 60
-121 149 -66 49 -116 92 -112 96 7 6 109 53 228 105 31 13 32 12 173 -95 79
-60 152 -112 164 -116 28 -8 62 26 54 54 -4 11 -65 64 -136 118 l-129 98 157
81 157 80 55 -33 c87 -52 169 -74 300 -79 186 -8 269 15 452 127 120 73 145
81 171 53z m-12787 -76 c125 -101 311 -171 486 -184 l88 -6 5 -31 c2 -17 21
-130 40 -251 112 -695 312 -1552 621 -2653 47 -166 87 -309 90 -317 5 -13 -83
-15 -710 -15 l-716 0 0 1766 c0 1721 0 1766 19 1753 10 -8 45 -35 77 -62z
m3762 -2916 c1 -1933 5 -2728 13 -2737 9 -10 189 -14 922 -16 900 -4 913 -4
989 -25 173 -49 282 -110 406 -227 177 -168 277 -410 270 -654 l-3 -97 -2982
-3 -2983 -2 0 114 c0 63 7 147 15 186 70 333 321 593 657 682 82 22 92 22 993
25 630 3 913 7 922 15 11 8 13 514 13 2739 l0 2729 383 -2 382 -3 3 -2724z
m12271 2582 c18 -42 34 -90 35 -107 l1 -31 -245 -3 c-160 -1 -241 1 -235 7 13
13 387 209 400 210 6 0 25 -34 44 -76z m-3049 -507 c0 -3 7 -38 15 -78 22
-102 9 -145 -64 -218 -105 -104 -266 -170 -501 -204 -246 -36 -370 -41 -970
-41 -557 0 -874 10 -1158 35 -202 18 -280 85 -270 230 3 43 4 45 33 44 17 0
85 -10 153 -22 265 -47 410 -56 867 -56 451 0 614 9 930 55 298 43 781 172
913 244 26 14 52 19 52 11z m563 -409 l62 -13 3 -68 3 -68 -28 7 c-46 11 -128
54 -173 89 -41 32 -110 111 -110 126 0 4 41 -8 91 -27 49 -19 118 -39 152 -46z
m2725 -1374 l2312 -6 0 -4474 0 -4473 -617 0 c-340 0 -2573 7 -4963 15 -2390
8 -4502 15 -4695 15 l-350 0 0 4472 0 4471 3000 -6 c1650 -4 4041 -10 5313
-14z m-30639 -194 c64 -11 185 -23 269 -26 l153 -6 -5 -36 c-3 -20 -24 -193
-47 -386 -38 -326 -42 -353 -67 -392 -15 -24 -30 -43 -33 -43 -3 0 -20 62 -38
138 -17 76 -37 144 -43 150 -8 8 -67 12 -185 12 l-173 0 0 315 0 315 27 -11
c15 -5 79 -19 142 -30z m4951 -821 l0 -212 -33 36 c-19 20 -45 40 -58 43 -35
9 -430 1 -450 -8 -14 -7 -17 9 -28 123 -7 72 -11 133 -9 135 1 2 53 8 113 14
131 13 262 35 365 60 41 10 81 19 88 20 9 1 12 -47 12 -211z m-4790 -35 c24
-98 47 -184 52 -190 6 -7 22 -13 37 -13 22 0 38 19 111 129 48 73 88 124 91
118 15 -28 34 -362 34 -597 l0 -255 -38 -110 c-76 -215 -274 -681 -383 -898
-42 -82 -101 -144 -169 -176 -43 -20 -73 -25 -210 -32 -88 -4 -239 -8 -336 -8
l-176 -1 -61 31 c-112 56 -173 157 -180 299 -4 72 0 97 21 161 77 228 233 561
363 774 117 193 240 468 366 822 l43 123 197 0 196 0 42 -177z m15570 105 c5
-13 53 -174 105 -358 102 -354 112 -378 185 -427 40 -28 92 -43 148 -43 23 0
42 -2 42 -4 0 -2 29 -157 65 -345 36 -188 65 -348 65 -355 0 -7 -71 -45 -157
-86 -217 -101 -573 -279 -718 -358 -66 -37 -164 -88 -218 -114 -54 -26 -126
-67 -160 -90 -92 -61 -215 -191 -275 -288 -100 -162 -140 -305 -149 -537 -5
-122 -4 -145 11 -167 l16 -26 3052 -2 3052 -3 -130 -118 -129 -118 -505 0
c-2072 1 -10034 24 -10111 29 l-96 7 496 446 c880 792 995 894 1000 892 3 -1
14 -80 24 -175 19 -189 26 -208 88 -241 30 -16 50 -17 169 -12 l135 7 0 -69
c0 -59 4 -76 27 -110 15 -22 44 -51 65 -64 l38 -24 1165 0 c1286 0 1187 -5
1254 62 53 52 66 95 66 227 0 195 -40 416 -119 649 -49 146 -76 205 -109 242
l-27 30 5 360 5 360 70 3 c38 2 75 8 82 14 10 8 13 97 13 419 l0 409 725 0
725 0 10 -22z m5056 -30 c-3 -24 -45 -556 -92 -1183 -48 -627 -88 -1141 -89
-1143 -2 -2 -33 26 -69 63 -72 72 -202 161 -293 201 -32 15 -101 38 -153 52
l-95 27 -887 3 -888 3 0 1009 0 1010 1286 0 1285 0 -5 -42z m1444 -910 l-1
-953 -696 -635 c-383 -349 -699 -636 -703 -638 -4 -2 -10 77 -13 175 -5 203
-22 281 -88 422 -22 47 -33 81 -25 78 7 -3 143 -8 302 -12 324 -9 341 -6 369
58 9 20 61 477 140 1222 69 655 128 1200 131 1213 l4 22 290 0 290 0 0 -952z
m-17386 630 c8 -13 34 -68 57 -123 43 -105 50 -115 86 -115 17 0 31 16 62 71
46 84 36 94 118 -114 98 -251 239 -683 368 -1127 48 -163 56 -204 53 -252 -6
-79 -44 -134 -118 -170 -109 -54 -585 -93 -933 -77 -272 12 -313 22 -375 93
-63 72 -64 41 16 860 40 408 73 747 72 754 0 20 14 14 25 -10 11 -26 49 -35
70 -18 13 11 85 186 85 207 0 7 10 19 22 27 18 13 55 16 200 16 173 0 178 -1
192 -22z m8026 -489 c14 -7 61 -16 105 -19 l79 -5 58 -345 c32 -190 57 -351
55 -358 -1 -7 -105 -62 -232 -121 -273 -128 -427 -205 -628 -313 -82 -44 -150
-78 -152 -76 -2 2 -15 156 -29 343 l-25 339 52 47 c29 25 182 164 341 307
l290 260 30 -23 c17 -12 42 -28 56 -36z m4400 -364 c0 -320 -2 -375 -14 -375
-8 0 -17 4 -21 10 -6 9 -55 606 -55 671 0 30 5 38 33 51 17 8 38 16 45 17 9 1
12 -80 12 -374z m-3260 97 c0 -104 -3 -250 -7 -326 l-6 -136 -366 2 -365 3
-53 310 c-28 171 -52 316 -52 323 -1 9 90 12 424 12 l425 0 0 -188z m3080 167
c0 -29 38 -534 45 -587 l5 -42 -353 2 -352 3 -57 300 c-32 165 -57 310 -58
323 l0 22 385 0 c384 0 385 0 385 -21z m-3051 -734 c33 -16 52 -57 109 -231
75 -226 118 -473 111 -633 -5 -90 -22 -124 -80 -154 -32 -16 -103 -17 -1161
-15 l-1128 3 -32 33 c-45 45 -44 96 5 196 54 109 163 208 338 307 259 148 842
438 984 490 45 17 87 18 438 19 320 0 393 -3 416 -15z m3190 0 c16 -8 31 -25
35 -37 3 -13 6 -94 6 -180 l0 -158 -832 1 -833 0 180 91 c196 99 539 263 595
284 54 20 810 20 849 -1z m5006 -3135 c-3 -377 -5 -937 -5 -1245 l-1 -560
-814 -733 -815 -732 0 2264 0 2264 393 360 c215 197 581 531 812 741 l420 383
8 -1028 c4 -566 5 -1337 2 -1714z m-8365 1245 c1779 -3 3999 -8 4933 -12
l1697 -6 0 -2279 0 -2278 -282 0 c-156 0 -2263 7 -4683 15 -2420 8 -4708 15
-5085 15 l-685 0 1 2273 c0 1249 1 2276 2 2280 1 5 197 6 435 3 237 -3 1888
-8 3667 -11z"/>
<path d="M33527 43700 c-87 -22 -172 -91 -203 -166 -38 -90 -24 -221 32 -307
22 -34 24 -41 11 -55 -8 -10 -396 -451 -862 -982 -467 -531 -850 -967 -851
-969 -2 -2 -27 7 -56 19 -66 28 -171 37 -234 20 -26 -8 -67 -29 -91 -47 l-44
-34 -34 28 c-19 15 -326 291 -683 613 l-649 585 31 55 c28 50 31 63 31 145 0
77 -4 98 -27 147 -35 76 -95 138 -170 178 -51 28 -77 34 -140 38 -45 3 -96 -1
-121 -7 -115 -33 -197 -145 -197 -271 0 -82 21 -154 60 -208 l30 -42 -1547
-1757 c-850 -967 -1550 -1762 -1554 -1767 -5 -6 -32 2 -66 20 -52 26 -68 29
-153 29 -88 0 -99 -2 -151 -32 l-55 -31 -599 539 c-329 296 -606 539 -616 539
-27 0 -53 -44 -41 -67 6 -10 278 -259 605 -553 497 -447 593 -538 585 -552 -5
-10 -13 -43 -19 -73 -44 -241 201 -473 439 -415 199 47 281 275 167 465 l-35
57 32 37 c17 20 717 815 1555 1767 l1523 1731 62 -31 c54 -27 72 -31 143 -30
49 0 94 6 115 16 l36 15 696 -626 c585 -526 695 -629 690 -646 -4 -11 -7 -58
-7 -105 0 -71 5 -95 27 -142 76 -164 265 -252 433 -204 79 23 156 100 179 176
32 106 15 210 -47 305 l-35 52 540 614 c298 338 686 779 863 980 l323 366 72
-35 c63 -32 80 -36 148 -36 85 1 143 20 200 68 133 113 126 341 -16 484 -80
81 -226 126 -325 102z"/>
<path d="M37825 43126 c-64 -29 -129 -102 -151 -168 -22 -68 -15 -169 17 -234
30 -62 91 -123 154 -155 l50 -24 2145 0 2145 0 41 22 c63 34 97 66 129 125 27
47 30 62 30 138 0 65 -5 96 -21 131 -31 67 -87 124 -156 159 l-61 30 -2136 0
-2136 0 -50 -24z"/>
<path d="M36558 41896 c-94 -25 -173 -105 -199 -201 -6 -22 -9 -69 -7 -105 9
-116 77 -213 187 -268 l56 -27 2770 0 c2700 0 2771 0 2819 19 66 25 128 85
157 149 34 76 33 182 -4 258 -32 66 -99 132 -165 162 l-47 22 -2760 2 c-2206
1 -2769 -1 -2807 -11z"/>
<path d="M23776 40854 c-68 -21 -147 -102 -171 -173 -55 -166 35 -361 203
-439 75 -35 179 -41 253 -17 77 26 152 103 175 180 48 167 -37 349 -201 429
-73 35 -184 44 -259 20z"/>
<path d="M36532 40645 c-172 -54 -250 -251 -167 -421 44 -90 132 -155 237
-174 35 -7 1024 -9 2788 -8 l2735 3 53 24 c235 106 224 445 -18 560 l-55 26
-2765 2 c-2301 1 -2772 -1 -2808 -12z"/>
<path d="M20967 37286 l-2328 -2645 -61 29 c-115 55 -234 49 -329 -17 -51 -34
-51 -35 -72 -15 -149 132 -1448 1300 -1464 1316 l-22 21 21 60 c42 122 5 259
-96 360 -149 148 -379 147 -493 -3 -42 -56 -56 -109 -51 -202 6 -135 83 -247
214 -311 56 -28 76 -33 142 -33 64 0 88 5 139 28 l62 28 758 -683 c599 -540
757 -688 754 -704 -2 -11 -4 -58 -5 -105 -1 -72 3 -93 25 -140 37 -77 97 -141
171 -180 51 -28 76 -34 140 -38 94 -6 147 8 209 53 122 88 146 287 53 428 -14
21 -22 43 -18 49 4 6 1050 1196 2325 2645 1276 1448 2320 2639 2320 2646 4 39
-11 57 -46 57 -15 0 -679 -748 -2348 -2644z"/>
<path d="M40095 39327 c-59 -28 -107 -73 -138 -131 -18 -34 -22 -57 -22 -136
0 -80 4 -102 23 -138 35 -66 88 -119 150 -149 l57 -28 975 0 975 0 55 31 c206
116 194 420 -21 539 l-54 30 -975 3 -975 2 -50 -23z"/>
<path d="M35297 13275 c-522 -470 -533 -481 -493 -515 8 -6 24 -10 36 -8 26 4
1017 893 1026 920 7 23 -21 58 -46 58 -9 0 -245 -205 -523 -455z"/>
<path d="M37897 13411 c-72 -65 -775 -697 -1562 -1405 -1140 -1026 -1431
-1292 -1433 -1313 -4 -27 18 -53 44 -53 12 0 3096 2765 3137 2812 9 11 17 26
17 33 0 20 -29 45 -51 45 -10 0 -79 -53 -152 -119z"/>
<path d="M8267 14088 c-8 -13 -73 -138 -145 -278 -85 -164 -150 -277 -182
-317 -54 -66 -137 -135 -183 -152 -17 -7 -116 -11 -248 -11 -133 0 -228 -4
-240 -10 -22 -12 -25 -52 -5 -69 10 -9 84 -11 263 -9 242 3 249 4 298 28 56
28 185 151 232 220 17 25 92 165 167 312 117 228 136 270 126 288 -15 28 -65
27 -83 -2z"/>
<path d="M7375 13856 c-19 -28 -10 -54 22 -67 32 -12 505 -12 537 1 33 12 37
64 7 80 -12 6 -121 10 -285 10 l-266 0 -15 -24z"/>
<path d="M12622 13884 c-12 -8 -22 -24 -22 -34 0 -10 10 -26 22 -34 19 -14 66
-16 309 -16 264 0 287 1 302 18 23 25 21 48 -5 66 -19 14 -65 16 -303 16 -238
0 -284 -2 -303 -16z"/>
<path d="M12333 13299 c-20 -20 -15 -57 10 -73 12 -8 67 -24 122 -35 283 -57
622 -54 904 8 103 23 121 33 121 66 0 47 -20 50 -159 21 -272 -55 -587 -57
-831 -5 -147 31 -154 32 -167 18z"/>
<path d="M25756 9492 c-275 -247 -503 -459 -508 -471 -8 -23 20 -61 46 -61 7
0 241 205 520 456 484 435 507 457 504 487 -3 27 -7 32 -33 35 -27 2 -82 -44
-529 -446z"/>
<path d="M8238 40619 c-25 -14 -24 -65 1 -79 14 -7 897 -10 2781 -10 1884 0
2767 3 2781 10 12 7 19 21 19 40 0 19 -7 33 -19 40 -27 14 -5539 14 -5563 -1z"/>
<path d="M8232 39878 c-17 -17 -15 -65 4 -72 9 -3 838 -6 1843 -6 1408 0 1830
3 1839 12 15 15 15 51 0 66 -17 17 -3669 17 -3686 0z"/>
<path d="M12592 39878 c-7 -7 -12 -21 -12 -33 0 -12 5 -26 12 -33 9 -9 158
-12 608 -12 450 0 599 3 608 12 7 7 12 21 12 33 0 12 -5 26 -12 33 -9 9 -158
12 -608 12 -450 0 -599 -3 -608 -12z"/>
</g>
</svg>
