<?xml version="1.0" standalone="no"?>
<!DOCTYPE svg PUBLIC "-//W3C//DTD SVG 20010904//EN"
 "http://www.w3.org/TR/2001/REC-SVG-20010904/DTD/svg10.dtd">
<svg version="1.0" xmlns="http://www.w3.org/2000/svg"
 width="5000.000000pt" height="5000.000000pt" viewBox="0 0 5000.000000 5000.000000"
 preserveAspectRatio="xMidYMid meet">

<g transform="translate(0.000000,5000.000000) scale(0.100000,-0.100000)"
fill="#000000" stroke="none">
<path d="M8140 43290 c-603 -7 -607 -8 -770 -62 -108 -35 -190 -76 -291 -143
-242 -161 -427 -421 -503 -703 -49 -184 -50 -218 -16 -904 16 -344 46 -963 65
-1374 40 -863 80 -1700 95 -1989 5 -110 12 -252 15 -315 83 -1764 123 -2605
130 -2745 3 -60 19 -396 35 -745 30 -632 65 -1356 75 -1565 3 -60 15 -303 26
-540 10 -236 33 -709 49 -1050 17 -341 34 -717 40 -835 5 -118 12 -262 15
-320 3 -58 19 -391 35 -740 30 -626 64 -1350 75 -1565 3 -60 15 -303 26 -540
10 -236 33 -709 49 -1050 17 -341 34 -717 40 -835 5 -118 12 -262 15 -320 3
-58 19 -391 35 -740 33 -700 67 -1397 75 -1560 3 -58 12 -253 20 -435 8 -181
24 -516 35 -742 11 -227 29 -601 40 -830 24 -503 28 -601 35 -740 3 -60 21
-441 40 -848 33 -690 57 -1206 70 -1455 3 -58 10 -204 15 -325 16 -344 69
-1458 85 -1790 8 -165 17 -354 20 -420 3 -66 26 -543 51 -1060 24 -517 60
-1275 79 -1685 19 -410 42 -887 50 -1060 37 -778 55 -1142 59 -1230 3 -52 8
-165 11 -250 8 -192 26 -305 71 -440 144 -430 511 -741 964 -817 86 -15 601
-16 5300 -20 4978 -5 5205 -4 5217 13 15 21 16 34 3 54 -8 13 -548 16 -4727
20 -4357 5 -4723 7 -4783 22 -235 61 -418 160 -569 310 -138 136 -229 278
-289 450 -49 139 -62 223 -77 522 -9 154 -29 526 -45 826 -16 300 -39 721 -50
935 -11 215 -41 764 -65 1220 -25 457 -52 958 -60 1115 -8 157 -33 616 -55
1020 -22 404 -47 868 -55 1030 -8 162 -35 669 -60 1125 -25 457 -56 1078 -70
1380 -14 303 -39 826 -55 1163 -17 338 -39 808 -50 1045 -19 404 -70 1480
-106 2212 -33 687 -51 1080 -49 1082 1 2 42 -50 92 -115 181 -233 420 -458
646 -608 l103 -68 32 -655 c18 -361 37 -744 43 -851 5 -107 29 -602 54 -1100
25 -498 57 -1134 70 -1415 14 -280 41 -825 60 -1210 20 -385 44 -882 55 -1105
11 -223 45 -902 75 -1510 30 -608 80 -1602 110 -2210 30 -608 57 -1150 60
-1205 3 -55 21 -424 40 -820 19 -396 40 -756 46 -799 69 -505 479 -915 983
-985 55 -8 2139 -11 7037 -11 6901 0 6959 0 6959 -20 0 -42 72 -296 115 -406
152 -388 411 -740 731 -990 334 -262 764 -438 1186 -483 126 -14 590 -14 716
0 539 58 1049 308 1422 695 332 344 530 737 623 1229 20 107 21 147 24 1374 3
947 1 1267 -8 1277 -9 11 -65 14 -301 14 -257 0 -289 2 -284 15 3 9 54 100
112 202 299 523 562 1042 681 1343 296 748 425 1441 425 2290 -1 857 -126
1656 -482 3080 -114 455 -210 893 -255 1165 -28 163 -45 213 -87 251 -82 75
-214 75 -296 0 -36 -32 -46 -57 -148 -349 -278 -799 -522 -1643 -678 -2343
-60 -270 -146 -720 -146 -767 0 -38 -13 -8 -79 190 -83 244 -156 426 -279 693
-168 367 -270 623 -355 900 -405 1307 -393 2696 33 3984 38 115 219 583 402
1040 363 909 355 884 310 972 -26 51 -79 98 -127 114 -56 19 -148 9 -188 -21
-35 -25 -867 -935 -1037 -1135 -293 -343 -596 -776 -826 -1180 l-89 -157 -7
84 c-3 46 -14 239 -23 429 -9 190 -36 746 -60 1235 -25 490 -56 1122 -70 1405
-13 283 -27 558 -30 610 -3 52 -26 502 -50 1000 -25 498 -52 1049 -61 1225
l-16 319 23 16 c13 8 84 60 159 115 587 436 1128 1016 1522 1631 544 851 861
1786 960 2829 20 212 17 903 -5 1115 -39 372 -110 754 -201 1080 -75 268 -112
377 -226 655 -54 132 -103 258 -110 279 -18 57 -7 152 35 291 65 219 134 599
156 860 14 174 6 596 -16 751 -52 385 -229 721 -427 814 -85 40 -163 48 -263
25 -98 -22 -151 -44 -236 -101 -173 -115 -287 -306 -341 -569 -30 -145 -30
-415 0 -625 41 -292 38 -424 -9 -525 -46 -98 -98 -79 -209 76 -176 246 -439
440 -619 456 -47 4 -59 2 -78 -16 -38 -36 -30 -71 34 -142 101 -113 204 -281
474 -774 123 -225 157 -263 313 -356 l108 -64 -1 -125 c-2 -171 -26 -421 -61
-628 -137 -815 -489 -1549 -1046 -2182 -99 -113 -162 -176 -167 -169 -3 3 -39
701 -88 1714 -5 105 -29 597 -54 1095 -25 498 -59 1182 -75 1520 -17 338 -44
881 -60 1205 -17 325 -44 871 -60 1215 -46 947 -58 1139 -75 1210 -58 242
-158 421 -327 586 -141 137 -282 223 -458 278 -184 59 -34 56 -3025 56 l-2750
0 58 24 c141 58 287 169 386 291 33 41 135 201 228 355 l168 280 2650 0 c2916
0 2736 4 2930 -61 409 -137 721 -511 784 -939 6 -41 18 -246 26 -455 8 -209
24 -594 35 -855 11 -261 26 -653 35 -870 8 -217 17 -438 20 -490 2 -52 7 -176
11 -275 4 -99 11 -188 16 -197 11 -22 51 -23 68 -3 14 17 15 7 -25 965 -13
322 -27 648 -30 725 -3 77 -10 255 -15 395 -5 140 -12 307 -15 370 -3 63 -10
232 -16 375 -11 294 -25 396 -74 542 -61 184 -161 347 -295 484 -172 175 -372
287 -630 352 l-85 22 -8020 0 c-4411 1 -8274 -2 -8585 -5z m6070 -377 c156
-250 199 -311 274 -390 97 -102 215 -187 324 -234 l67 -28 -2735 -3 -2735 -4
-85 -21 c-239 -60 -427 -168 -590 -339 -220 -232 -333 -542 -315 -869 3 -60
14 -297 25 -525 21 -426 85 -1730 95 -1900 7 -140 13 -254 45 -925 17 -335 39
-785 50 -1000 35 -693 111 -2225 145 -2930 14 -280 36 -735 50 -1010 14 -275
36 -723 50 -995 13 -272 27 -544 30 -605 3 -60 26 -514 50 -1008 l45 -898 -64
-92 c-217 -314 -436 -717 -580 -1072 -92 -226 -82 -218 -90 -80 -10 190 -15
292 -36 755 -31 677 -79 1666 -84 1760 -3 47 -8 155 -11 240 -3 85 -8 175 -11
198 -4 32 -1 49 11 62 17 18 16 25 -25 915 -6 121 -28 609 -50 1085 -22 476
-42 912 -45 970 -3 58 -14 308 -25 555 -24 538 -87 1907 -95 2055 -3 58 -12
260 -20 450 -9 190 -24 539 -35 775 -11 237 -29 621 -40 855 -11 234 -22 475
-25 535 -3 61 -15 313 -26 560 -11 248 -38 833 -59 1300 -45 952 -48 1073 -25
1193 45 236 156 445 329 618 137 137 278 225 455 284 182 61 13 58 2916 59
l2660 1 185 -297z m9960 -767 c323 -78 582 -282 725 -571 100 -199 101 -212
140 -965 19 -360 41 -803 50 -985 9 -181 36 -730 60 -1220 25 -489 56 -1124
70 -1410 14 -286 41 -828 60 -1205 19 -377 46 -923 60 -1215 14 -291 35 -701
46 -910 l20 -380 -78 -74 c-400 -378 -1030 -790 -1515 -990 l-97 -40 -57 82
c-402 576 -943 1155 -1504 1612 -968 789 -2154 1357 -3361 1610 -88 18 -162
35 -165 37 -2 3 12 23 31 45 19 23 35 49 35 60 0 10 -95 229 -210 487 -115
258 -209 471 -207 472 2 2 66 16 143 32 235 49 330 98 474 242 258 258 416
651 383 951 -22 192 -98 347 -237 476 -175 163 -453 264 -725 264 -141 -1
-231 -21 -372 -86 -226 -103 -294 -119 -492 -113 -158 6 -188 14 -387 103 -58
26 -148 59 -200 72 -87 24 -113 26 -300 26 -164 0 -228 -5 -320 -21 -347 -63
-584 -209 -694 -428 -48 -96 -57 -154 -60 -411 -3 -208 -6 -247 -25 -311 -29
-99 -68 -173 -135 -259 -73 -94 -151 -153 -284 -215 -219 -102 -252 -119 -302
-159 -89 -70 -174 -202 -220 -339 -94 -285 -49 -673 123 -1043 22 -48 38 -89
36 -90 -2 -2 -74 -27 -159 -56 -846 -289 -1692 -761 -2421 -1352 -439 -356
-913 -841 -1272 -1303 -616 -792 -1090 -1724 -1367 -2690 l-32 -109 -121 -146
c-67 -80 -145 -175 -172 -211 l-50 -65 -3 45 c-4 69 -77 1534 -122 2450 -22
448 -56 1126 -75 1505 -19 380 -41 832 -50 1005 -8 173 -33 673 -55 1110 -22
437 -51 1029 -65 1315 -29 590 -92 1859 -100 2010 -3 55 -15 287 -25 515 -11
228 -34 678 -50 1000 -46 912 -45 852 -25 965 82 475 450 833 917 894 35 5
3348 8 7363 7 7020 -1 7303 -2 7375 -20z m3367 -3121 c91 -38 180 -142 255
-297 88 -180 128 -342 149 -601 15 -187 7 -591 -15 -747 -34 -240 -88 -510
-133 -655 -41 -133 -46 -161 -47 -250 -1 -113 -2 -112 127 -420 93 -224 134
-340 202 -575 120 -419 195 -853 226 -1304 15 -226 6 -773 -16 -981 -76 -716
-240 -1329 -525 -1961 -39 -87 -77 -165 -84 -172 -9 -10 -33 -8 -116 7 -831
153 -1544 623 -2133 1407 -74 98 -218 315 -270 404 l-26 45 96 80 c462 386
885 919 1153 1454 298 597 470 1303 470 1939 l0 142 -30 18 c-16 9 -69 40
-116 67 -143 82 -167 109 -284 322 -244 444 -369 653 -457 762 l-28 34 25 -7
c54 -16 169 -80 237 -132 90 -69 186 -171 257 -272 101 -144 183 -198 261
-172 77 25 124 111 145 261 13 95 8 192 -21 409 -28 207 -34 347 -20 482 28
270 106 448 255 585 141 129 333 182 463 128z m-9242 -2717 c153 -343 283
-635 288 -649 9 -24 2 -35 -84 -137 l-94 -112 -1 -267 c0 -282 -8 -363 -49
-520 -42 -161 -116 -277 -200 -314 -41 -18 -348 -78 -510 -100 -219 -29 -453
29 -629 155 -60 43 -153 135 -211 210 -26 33 -35 38 -57 33 -14 -4 -29 -14
-32 -23 -10 -26 39 -99 123 -183 189 -188 410 -282 673 -285 l127 -1 5 -25 c3
-14 37 -223 76 -465 122 -768 133 -830 141 -841 5 -5 227 -75 494 -155 489
-145 514 -154 499 -193 -9 -25 -422 -156 -659 -210 -415 -94 -733 -133 -1170
-143 -488 -11 -931 31 -1465 137 -204 41 -626 143 -637 154 -4 3 -2 10 3 15 8
8 1002 294 1072 309 13 2 28 14 32 26 5 11 34 190 64 396 78 529 177 1195 238
1603 39 258 49 353 42 365 -9 14 -33 18 -125 23 -143 8 -208 31 -284 101 -86
78 -146 227 -148 368 -3 149 83 198 264 150 127 -34 145 -35 158 -12 8 15 5
33 -15 82 -48 119 -68 224 -68 360 0 103 4 136 23 190 63 180 208 303 448 377
82 25 101 27 263 27 135 0 203 -5 300 -22 309 -54 524 -12 745 147 39 27 73
50 76 50 3 1 131 -279 284 -621z m437 -904 c292 -60 546 -127 833 -221 1563
-510 2914 -1487 3907 -2823 137 -185 152 -207 141 -213 -17 -10 -203 -67 -298
-91 -283 -71 -523 -99 -850 -99 -449 0 -772 42 -1593 209 -1021 208 -1264 253
-1677 311 -240 34 -262 39 -286 63 -21 20 -119 53 -499 166 l-474 142 -32 198
c-18 110 -62 386 -99 614 -37 228 -69 427 -72 442 -5 24 -2 27 33 33 213 37
396 78 441 100 196 97 306 459 290 959 l-6 180 27 32 c15 18 30 33 34 33 4 1
85 -15 180 -35z m-3957 -267 c60 -93 178 -230 264 -305 341 -300 697 -398
1079 -297 52 14 95 25 96 25 2 0 -12 -100 -30 -222 -60 -399 -145 -977 -188
-1267 -30 -205 -46 -287 -56 -293 -8 -4 -199 -60 -425 -123 -326 -92 -444
-121 -575 -140 -761 -115 -1448 -324 -2520 -768 -85 -35 -211 -85 -280 -112
-168 -65 -462 -199 -640 -292 -686 -360 -1263 -773 -1762 -1262 -93 -90 -168
-159 -168 -152 0 6 34 113 75 237 656 1977 2090 3633 3960 4571 193 97 479
224 670 298 146 56 445 164 455 164 3 0 23 -28 45 -62z m10315 -2318 c12 -23
63 -103 113 -178 565 -853 1298 -1408 2137 -1616 74 -18 169 -39 210 -46 41
-7 76 -13 78 -14 1 -1 -21 -44 -49 -96 -536 -989 -1329 -1808 -2304 -2379
-180 -105 -536 -281 -739 -365 -624 -258 -1300 -413 -1991 -456 -219 -14 -747
-5 -945 15 -69 7 -131 11 -138 8 -25 -9 -136 -431 -212 -812 -272 -1359 -198
-2537 224 -3574 29 -72 104 -243 166 -381 208 -462 248 -580 257 -760 6 -128
-5 -195 -46 -277 -110 -218 -343 -325 -781 -358 -173 -13 -646 -10 -1155 7
-438 15 -1327 12 -1620 -6 -986 -61 -1667 -162 -2995 -446 -771 -165 -950
-194 -1250 -202 -241 -6 -358 8 -512 61 -141 48 -245 113 -359 226 -82 80
-103 108 -137 180 -115 241 -194 689 -277 1576 -14 149 -25 280 -25 290 0 15
23 26 118 57 549 177 1110 464 1468 752 l101 82 75 7 c223 20 445 140 686 370
80 77 317 335 442 482 l35 41 668 52 c481 37 676 55 696 66 70 36 106 115 97
213 -3 31 -8 194 -11 362 -3 168 -10 467 -15 665 -5 198 -14 583 -21 855 -6
272 -15 512 -20 533 -12 47 -67 103 -116 116 -28 8 -221 -4 -822 -50 -432 -32
-800 -62 -817 -64 -42 -7 -93 -43 -121 -84 -26 -39 -29 -93 -12 -216 6 -42 8
-79 6 -81 -2 -2 -37 2 -78 10 -110 22 -165 25 -254 15 -178 -22 -305 -123
-361 -289 -30 -89 -26 -286 9 -412 50 -184 123 -339 249 -525 37 -56 68 -105
68 -108 0 -2 -153 -186 -341 -407 l-340 -403 -77 -23 c-446 -133 -901 -217
-1244 -229 l-168 -6 0 544 c0 725 -18 1213 -51 1418 -19 122 -91 220 -198 270
-49 23 -68 26 -161 26 l-105 0 -106 -52 c-507 -248 -770 -671 -893 -1433 -38
-236 -41 -276 -22 -305 9 -13 16 -26 16 -27 0 -2 -46 -3 -103 -4 -126 -1 -204
-20 -322 -78 -158 -78 -239 -161 -410 -421 -308 -467 -538 -1008 -681 -1602
-14 -59 -28 -112 -31 -116 -6 -10 -173 79 -298 161 -149 96 -255 182 -399 322
-504 490 -810 1148 -867 1863 -20 245 4 732 52 1062 145 1002 511 1887 1103
2673 496 656 1129 1222 1892 1690 378 232 861 471 1209 600 61 22 212 84 338
136 732 307 1413 525 1997 640 252 49 230 48 230 17 0 -44 35 -89 77 -100 549
-145 950 -219 1443 -268 221 -22 825 -25 1035 -5 522 49 1002 152 1417 302 82
30 127 62 140 100 2 8 50 5 163 -10 364 -48 827 -133 1805 -333 1007 -207
1522 -248 2085 -166 532 77 1030 276 1615 648 126 79 403 275 421 297 19 23
34 16 59 -27z m544 -4291 c3 -40 17 -305 31 -588 14 -283 47 -965 75 -1515 27
-550 61 -1234 75 -1520 14 -286 41 -830 60 -1210 19 -379 44 -874 55 -1098
l20 -408 -50 -100 c-354 -704 -617 -1572 -730 -2404 -89 -664 -93 -1369 -10
-2020 74 -579 159 -934 404 -1702 64 -199 116 -364 116 -368 0 -4 -42 32 -92
80 -332 313 -735 554 -1171 700 -310 104 -996 305 -1040 305 -86 0 -175 -65
-213 -155 -30 -73 -12 -188 39 -244 12 -13 162 -132 332 -264 515 -401 720
-629 905 -1012 152 -314 219 -590 240 -996 16 -308 52 -503 137 -754 69 -203
151 -360 406 -778 131 -213 237 -392 237 -398 0 -5 -110 -9 -279 -9 -226 0
-281 -3 -290 -14 -13 -16 -10 -2496 4 -2554 l7 -32 -6955 0 c-6216 0 -6964 2
-7043 15 -389 68 -710 347 -834 725 -47 143 -46 130 -150 2290 -17 338 -44
881 -60 1205 -17 325 -41 822 -55 1105 -13 283 -27 556 -30 605 -3 50 -25 500
-50 1000 -25 501 -67 1360 -95 1910 -27 550 -61 1234 -75 1520 -14 286 -41
828 -60 1205 -19 377 -46 924 -60 1215 -14 292 -30 608 -35 704 -6 95 -10 186
-10 202 l0 29 71 -35 c39 -20 120 -56 181 -81 88 -36 118 -44 147 -39 21 3 76
-2 131 -14 202 -41 439 -71 700 -86 l105 -7 29 -40 c214 -298 671 -798 1011
-1108 1187 -1079 2650 -1771 4220 -1995 757 -108 1466 -111 2222 -10 1919 258
3700 1230 4972 2714 1064 1240 1716 2758 1880 4371 36 348 44 570 37 960 -4
201 -9 384 -12 406 l-6 42 79 43 c105 57 379 221 423 253 19 14 38 25 42 26 3
0 9 -33 12 -72z m-637 -335 c13 -64 9 -922 -5 -1088 -76 -888 -254 -1642 -569
-2410 -538 -1308 -1434 -2463 -2574 -3320 -84 -63 -155 -113 -156 -111 -5 5
-54 298 -51 300 2 2 26 15 53 31 28 16 77 54 109 84 126 119 188 261 188 436
1 202 -45 348 -265 836 -63 140 -135 304 -160 364 -218 532 -342 1092 -378
1705 -13 221 -7 673 11 890 38 453 130 985 252 1450 22 85 45 175 51 199 l11
44 65 -7 c347 -32 864 -32 1181 -1 745 73 1490 278 2106 580 60 29 112 54 116
54 4 1 11 -16 15 -36z m-9894 -902 c43 -10 82 -23 87 -27 11 -13 122 -926 113
-935 -5 -4 -88 -33 -185 -64 -157 -49 -182 -60 -212 -92 l-34 -36 -62 94
c-125 190 -214 399 -245 573 -18 105 -19 152 -4 231 25 134 106 228 229 266
50 15 232 9 313 -10z m-2781 -131 c58 -17 120 -69 151 -131 24 -48 30 -75 42
-219 22 -252 35 -710 35 -1289 l0 -524 -102 7 c-382 26 -701 124 -1005 310
-51 31 -95 56 -99 56 -3 0 -42 30 -85 66 l-79 66 6 56 c13 119 65 407 93 520
127 498 330 792 690 997 161 92 249 113 353 85z m4148 -631 c130 -57 183 -178
160 -364 -23 -191 -72 -313 -167 -415 -68 -74 -126 -114 -309 -216 -272 -150
-304 -177 -553 -465 -446 -516 -634 -690 -854 -795 -91 -43 -213 -74 -291 -74
-61 0 -61 -1 -143 -69 -185 -156 -432 -314 -711 -455 -1094 -552 -2490 -774
-3587 -571 -152 28 -336 72 -347 83 -8 8 52 248 107 432 159 531 405 1035 703
1436 111 150 259 246 432 280 163 32 307 4 470 -91 409 -241 769 -335 1278
-335 404 0 809 65 1336 213 l185 52 401 475 c221 261 403 476 404 477 1 1 145
48 321 104 176 56 413 139 527 185 114 46 233 91 264 100 162 47 287 51 374
13z m11721 -1795 c40 -38 51 -84 35 -137 -7 -23 -153 -391 -324 -818 -338
-842 -368 -921 -443 -1169 -177 -582 -270 -1160 -285 -1785 -19 -758 101
-1540 350 -2270 91 -269 148 -406 334 -812 463 -1005 663 -2157 566 -3253 -8
-96 -79 -679 -157 -1295 l-142 -1120 -395 0 -395 0 -497 1270 c-514 1314 -570
1444 -716 1678 -61 98 -174 256 -259 362 -27 34 -58 119 -178 495 -200 624
-252 805 -319 1115 -130 598 -185 1166 -173 1785 6 334 21 540 63 865 162
1265 654 2502 1407 3540 97 134 317 409 419 525 234 266 923 1019 950 1038 46
33 117 27 159 -14z m-15537 -1596 c4 -35 18 -180 31 -323 82 -845 166 -1293
287 -1528 71 -135 224 -281 389 -367 179 -93 354 -130 622 -130 l179 0 -7
-197 c-4 -109 -9 -199 -10 -201 -5 -6 -267 109 -450 197 -1039 502 -1986 1258
-2718 2171 l-140 175 184 7 c511 18 1067 104 1509 232 122 35 117 37 124 -36z
m16806 -2777 c40 -28 57 -77 80 -226 26 -174 100 -523 190 -895 38 -157 102
-424 144 -595 269 -1117 377 -1805 395 -2515 18 -769 -60 -1379 -261 -2035
-147 -480 -385 -984 -850 -1797 l-130 -228 -404 0 c-392 0 -404 1 -404 19 0
11 25 214 55 453 30 238 84 667 120 953 36 286 74 585 85 665 84 638 71 1387
-36 1990 -24 137 -73 368 -99 469 l-24 94 34 220 c121 776 354 1686 706 2753
151 458 215 633 241 661 41 43 107 49 158 14z m-5555 -3922 c545 -165 690
-217 900 -324 325 -165 567 -345 835 -622 297 -306 517 -654 685 -1083 31 -80
249 -635 484 -1235 235 -599 426 -1093 424 -1097 -2 -5 -375 -8 -827 -8 -660
0 -826 3 -834 13 -6 7 -119 190 -252 407 -320 524 -399 687 -475 984 -46 178
-64 310 -75 549 -27 560 -181 1003 -494 1422 -149 198 -315 355 -681 638 -175
136 -327 260 -337 275 -26 40 -24 120 5 163 25 38 78 69 118 69 15 0 251 -68
524 -151z m5742 -5686 c-3 -1351 1 -1266 -67 -1527 -137 -532 -478 -1005 -945
-1309 -251 -163 -518 -268 -840 -329 -111 -21 -147 -23 -480 -23 -399 0 -479
9 -720 76 -883 249 -1525 1019 -1614 1933 -7 70 -11 522 -11 1258 l0 1148
2340 0 2341 0 -4 -1227z"/>
<path d="M10050 41679 c-125 -11 -231 -42 -355 -103 -335 -165 -557 -488 -607
-882 -10 -76 -7 -186 15 -665 15 -316 30 -605 32 -644 2 -38 7 -128 10 -200 7
-158 56 -1211 90 -1910 13 -280 27 -580 31 -665 4 -85 11 -163 16 -172 5 -10
19 -18 32 -18 49 0 50 12 38 273 -7 133 -19 391 -27 572 -8 182 -33 706 -55
1165 -22 459 -49 1029 -60 1265 -10 237 -21 466 -24 510 -17 257 -18 432 -2
526 71 436 391 774 801 849 43 8 1961 10 6835 8 l6775 -3 70 -22 c96 -31 227
-95 299 -147 74 -53 198 -181 247 -256 120 -182 171 -354 184 -610 3 -69 21
-451 40 -850 19 -399 46 -972 60 -1275 14 -302 39 -827 55 -1165 16 -338 46
-948 65 -1356 19 -407 37 -748 41 -757 10 -26 44 -32 66 -10 19 19 18 25 -2
434 -11 228 -31 659 -45 959 -13 300 -27 590 -30 645 -8 145 -61 1261 -90
1890 -13 297 -27 581 -30 630 -3 50 -14 290 -25 535 -12 245 -28 485 -36 534
-50 304 -233 585 -489 752 -149 97 -298 148 -479 164 -135 12 -13318 11
-13446 -1z"/>
<path d="M9336 35418 c-12 -20 -11 -87 10 -503 29 -585 114 -2394 114 -2417 0
-20 26 -48 45 -48 7 0 21 8 31 17 15 15 16 32 10 143 -13 253 -87 1820 -109
2302 -17 367 -27 501 -36 512 -19 23 -48 20 -65 -6z"/>
<path d="M20459 18370 c-401 -50 -724 -341 -821 -737 -31 -130 -29 -313 6
-447 89 -344 350 -605 696 -697 110 -29 336 -32 444 -6 185 46 324 125 461
262 137 137 216 276 262 461 27 108 24 334 -6 444 -84 315 -316 570 -611 672
-129 45 -304 64 -431 48z m318 -110 c300 -70 535 -297 630 -607 23 -77 26
-106 27 -228 0 -161 -14 -232 -74 -361 -112 -242 -301 -405 -557 -479 -459
-134 -951 152 -1073 623 -73 282 13 601 220 812 83 85 134 123 236 174 185 92
381 114 591 66z"/>
<path d="M15191 18265 c-365 -83 -629 -326 -738 -682 -24 -81 -27 -102 -27
-258 0 -156 3 -177 27 -258 101 -328 336 -563 664 -664 80 -24 103 -27 253
-27 127 -1 179 3 227 16 359 100 611 347 706 692 32 119 32 365 -1 484 -93
341 -346 590 -700 688 -81 23 -327 28 -411 9z m357 -91 c287 -59 536 -270 637
-538 55 -148 71 -338 40 -485 -72 -342 -340 -607 -684 -677 -101 -20 -291 -15
-386 11 -94 25 -253 108 -327 169 -98 81 -173 177 -228 291 -64 131 -80 195
-87 341 -11 238 62 442 221 620 126 141 317 245 506 277 64 11 237 6 308 -9z"/>
<path d="M17750 18261 c-185 -39 -333 -122 -475 -265 -141 -142 -217 -280
-261 -471 -24 -108 -24 -292 0 -400 66 -291 256 -531 521 -661 126 -61 224
-85 375 -91 202 -8 358 31 535 133 107 62 262 218 329 331 142 240 172 532 82
795 -49 144 -113 245 -231 364 -142 144 -296 229 -487 268 -103 21 -279 20
-388 -3z m450 -106 c295 -95 513 -321 591 -615 29 -110 32 -310 5 -410 -88
-334 -309 -557 -641 -648 -85 -24 -326 -23 -414 1 -256 70 -448 225 -561 452
-72 143 -92 230 -92 390 0 155 20 243 85 380 100 207 284 370 497 440 113 38
163 44 305 41 120 -3 152 -7 225 -31z"/>
<path d="M10300 15010 c-8 -14 -6 -104 4 -318 9 -163 20 -398 26 -522 21 -461
22 -486 35 -755 18 -352 78 -1627 95 -2010 10 -247 24 -486 30 -529 36 -253
166 -507 347 -676 170 -160 380 -255 613 -280 57 -6 564 -10 1276 -10 1142 0
1183 1 1205 19 21 16 22 22 11 45 l-12 26 -1187 0 c-717 0 -1226 4 -1283 10
-127 14 -222 41 -328 94 -261 131 -453 372 -529 664 -26 100 -37 266 -73 1052
-20 448 -90 1922 -100 2120 -6 107 -19 390 -30 629 -13 277 -24 439 -31 448
-17 20 -57 16 -69 -7z"/>
<path d="M14936 9984 c-11 -29 -6 -53 13 -64 14 -7 1368 -10 4298 -10 3856 0
4281 2 4301 16 24 17 29 43 10 62 -9 9 -981 12 -4314 12 -3914 0 -4302 -1
-4308 -16z"/>
<path d="M27463 23758 c-38 -42 -206 -332 -314 -543 -466 -909 -741 -1828
-836 -2795 -24 -244 -24 -837 0 -1070 60 -577 162 -1011 471 -2005 193 -624
271 -893 355 -1232 259 -1046 340 -2043 255 -3145 -18 -235 -16 -248 32 -248
13 0 28 8 33 18 13 24 38 361 52 682 28 670 -29 1455 -156 2126 -99 519 -211
942 -479 1804 -317 1021 -409 1413 -472 2005 -22 199 -25 800 -6 1005 63 684
202 1292 443 1938 174 467 413 963 635 1319 65 102 74 129 52 151 -18 18 -42
14 -65 -10z"/>
<path d="M25551 18856 c-17 -21 -10 -55 46 -230 177 -551 416 -1037 703 -1428
37 -51 71 -68 95 -48 26 21 17 50 -39 124 -260 346 -535 916 -686 1421 -23 77
-45 147 -49 155 -11 21 -55 24 -70 6z"/>
<path d="M29301 19363 l-21 -18 10 -400 c17 -690 10 -1823 -15 -2395 -37 -852
-95 -1568 -171 -2085 -48 -332 -49 -342 -34 -360 18 -22 47 -18 64 8 22 35 74
396 120 837 56 532 85 971 118 1800 15 358 15 2249 1 2469 -7 120 -10 135 -29
148 -18 12 -24 11 -43 -4z"/>
<path d="M23975 16174 c-31 -31 -14 -54 90 -119 316 -198 705 -541 966 -850
634 -753 969 -1618 1015 -2622 5 -110 10 -156 20 -164 21 -18 63 -2 70 26 9
36 -14 385 -37 565 -134 1050 -643 1996 -1470 2731 -210 186 -577 449 -628
449 -5 0 -17 -7 -26 -16z"/>
<path d="M25368 11269 c-21 -12 -24 -52 -4 -68 10 -8 529 -10 1957 -9 l1944 3
3 30 c3 19 -2 33 -14 42 -14 11 -379 13 -1943 13 -1290 -1 -1932 -4 -1943 -11z"/>
<path d="M32480 43169 c-1424 -93 -2623 -565 -3398 -1338 -679 -677 -1023
-1591 -1022 -2716 0 -208 17 -454 31 -471 6 -8 22 -14 34 -14 20 0 34 21 90
128 152 288 325 509 490 622 63 43 179 96 250 115 75 19 201 19 283 0 75 -18
184 -71 272 -133 106 -75 287 -259 544 -552 500 -571 719 -780 1056 -1009 496
-337 1118 -553 1778 -616 92 -9 191 -18 220 -21 45 -5 52 -8 52 -27 0 -46 62
-288 111 -432 59 -178 189 -447 286 -595 436 -663 1174 -1116 2093 -1284 209
-38 347 -50 580 -50 435 0 731 58 1381 268 454 147 600 184 799 201 172 14
384 -37 542 -131 103 -61 273 -227 347 -339 139 -211 262 -548 312 -858 22
-130 60 -139 133 -29 209 315 416 740 551 1134 401 1168 336 2324 -190 3363
-419 827 -1104 1518 -1910 1926 -348 176 -710 300 -1038 355 l-103 18 -17 157
c-52 490 -249 883 -618 1233 -652 619 -1731 1007 -3047 1096 -176 12 -707 11
-892 -1z m890 -89 c1167 -73 2179 -407 2835 -936 103 -83 280 -259 356 -354
224 -279 357 -619 388 -985 4 -55 7 -101 6 -103 -1 -1 -47 3 -101 10 -151 18
-646 15 -831 -5 -865 -97 -1545 -397 -2052 -908 -507 -510 -812 -1218 -850
-1976 -8 -155 0 -452 15 -530 l7 -36 -99 7 c-753 52 -1445 288 -1971 673 -306
223 -509 424 -1009 998 -437 502 -642 649 -927 662 -65 4 -132 1 -170 -7 -214
-41 -437 -201 -614 -440 -70 -95 -183 -275 -183 -292 0 -5 -5 -6 -11 -3 -7 5
-9 104 -6 324 7 429 42 717 131 1063 309 1202 1168 2056 2531 2514 550 184
1114 288 1790 327 132 8 618 6 765 -3z m3485 -2460 c151 -17 383 -58 507 -90
1219 -308 2261 -1218 2777 -2427 170 -398 272 -803 311 -1233 14 -148 14 -551
0 -705 -42 -475 -159 -947 -350 -1410 -72 -173 -230 -490 -325 -647 -41 -71
-77 -128 -80 -128 -2 0 -9 26 -15 58 -22 112 -82 319 -126 432 -93 237 -198
404 -350 555 -214 212 -439 307 -729 307 -214 1 -388 -38 -860 -192 -585 -191
-839 -248 -1211 -272 -395 -25 -824 37 -1255 182 -994 335 -1647 1011 -1865
1927 -163 690 -75 1420 250 2060 482 951 1399 1502 2651 1593 144 10 545 5
670 -10z"/>
<path d="M30596 40794 c-20 -20 -20 -38 0 -58 14 -15 227 -16 2236 -14 l2221
3 13 20 c12 18 11 24 -2 43 l-15 22 -2219 0 c-2004 0 -2220 -2 -2234 -16z"/>
<path d="M31628 40033 c-23 -6 -34 -49 -18 -68 11 -13 152 -15 1149 -13 l1136
3 3 30 c3 19 -2 33 -14 42 -14 10 -232 13 -1128 12 -611 -1 -1119 -3 -1128 -6z"/>
<path d="M34686 38097 c-12 -9 -17 -23 -14 -42 l3 -30 2105 0 2105 0 3 30 c3
19 -2 33 -14 42 -26 19 -4162 19 -4188 0z"/>
<path d="M36008 37559 c-21 -12 -24 -49 -6 -67 9 -9 195 -12 775 -12 l763 0
12 26 c11 23 10 29 -11 45 -22 18 -53 19 -770 19 -488 -1 -752 -4 -763 -11z"/>
<path d="M29653 32700 c-59 -36 -66 -64 -59 -239 4 -86 9 -181 13 -212 5 -56
5 -56 -24 -62 -42 -8 -161 -129 -200 -202 -93 -176 -82 -382 35 -651 43 -99
138 -269 212 -379 47 -70 47 -70 52 -170 9 -180 40 -204 261 -205 l138 0 141
-97 c78 -54 171 -127 207 -162 l66 -64 -58 -25 c-38 -17 -59 -32 -63 -46 -6
-25 194 -826 324 -1301 461 -1675 902 -2839 1275 -3360 204 -286 354 -366 662
-352 186 8 335 51 535 153 283 144 628 419 900 718 l115 127 3 -53 c2 -29 -1
-273 -7 -543 -45 -1952 -214 -3611 -481 -4734 -34 -138 -35 -154 -17 -169 6
-6 73 -13 147 -17 180 -8 407 -24 448 -32 19 -3 35 -11 37 -17 2 -6 6 -119 9
-251 4 -132 11 -379 16 -550 6 -170 17 -526 25 -790 8 -264 17 -552 20 -640 3
-88 14 -443 25 -790 11 -346 22 -702 25 -790 2 -88 7 -250 10 -360 3 -110 7
-249 10 -310 3 -60 7 -211 10 -335 12 -478 45 -722 140 -1057 104 -361 245
-652 516 -1058 418 -628 837 -1189 1223 -1637 127 -148 392 -428 405 -428 4 0
15 174 24 388 17 358 118 2531 133 2845 6 128 8 139 29 153 27 17 52 10 61
-18 6 -19 2 -133 -11 -383 -3 -49 -17 -342 -31 -650 -14 -308 -45 -981 -69
-1495 -38 -802 -42 -937 -30 -950 10 -11 13 -34 9 -85 -3 -39 -13 -272 -24
-520 -11 -247 -29 -670 -41 -940 l-22 -490 -34 -90 c-56 -144 -205 -442 -271
-541 -34 -50 -89 -117 -123 -148 -34 -31 -212 -158 -398 -281 -465 -309 -650
-457 -789 -631 -142 -179 -189 -310 -179 -499 18 -316 136 -483 392 -550 266
-70 924 28 1385 207 388 151 792 403 1041 650 141 140 179 215 186 363 4 88 1
119 -30 260 -62 280 -84 474 -94 827 l-6 226 69 7 c215 20 437 73 611 144 l93
39 0 -57 c1 -193 96 -341 311 -483 149 -99 425 -224 580 -264 132 -34 254 12
349 131 189 239 387 574 462 785 21 59 23 82 23 240 -1 241 -17 326 -184 965
-50 193 -64 274 -105 647 -37 329 -43 351 -103 412 -53 53 -107 70 -201 63
-75 -6 -569 -52 -644 -61 l-38 -4 0 81 c0 45 7 226 15 402 53 1138 120 2043
230 3120 149 1449 173 3163 69 4849 l-15 250 82 76 83 76 -2 109 c-4 192 -23
385 -58 593 -9 51 -15 95 -13 97 2 2 67 -5 144 -15 156 -21 380 -40 465 -40
l55 0 22 -62 c12 -35 73 -211 136 -393 226 -650 439 -1221 503 -1348 32 -62
52 -71 139 -59 39 6 73 7 76 3 3 -3 45 -103 94 -221 127 -310 347 -825 385
-901 48 -96 108 -175 197 -260 133 -127 268 -178 353 -134 83 43 65 112 -103
400 -60 103 -107 196 -107 211 0 12 47 1 93 -21 74 -35 146 -92 320 -253 224
-208 281 -249 490 -353 135 -68 227 -99 312 -105 60 -5 76 -2 115 18 25 13 55
39 68 58 67 98 -28 331 -261 643 -167 224 -310 365 -472 469 -38 25 -148 85
-243 133 -146 73 -185 98 -244 153 -39 37 -90 94 -113 127 -50 70 -128 196
-123 199 2 2 37 13 78 27 70 23 75 26 83 59 16 67 11 642 -7 840 -26 292 -84
708 -138 1005 l-13 70 122 67 c694 379 1178 1004 1418 1833 265 918 179 2007
-225 2851 -160 336 -329 575 -575 818 -344 340 -708 644 -1005 843 -231 154
-401 243 -745 388 -296 125 -459 208 -620 316 -158 106 -254 187 -335 282
-272 319 -418 734 -481 1372 -6 61 -14 299 -18 530 -7 380 -10 427 -29 497
-96 352 -346 623 -730 788 -227 98 -457 143 -732 144 -213 0 -322 -12 -507
-60 -560 -142 -858 -476 -1018 -1139 -42 -175 -81 -412 -140 -855 -72 -540
-125 -744 -253 -979 l-35 -64 -100 7 c-110 8 -687 -8 -894 -25 -490 -39 -881
-261 -1278 -724 -33 -38 -142 -171 -241 -295 -252 -313 -350 -408 -466 -452
-145 -55 -260 12 -430 248 -261 364 -710 1294 -1084 2243 -80 202 -87 215
-122 208 -15 -2 -34 -7 -43 -11 -13 -6 -18 4 -28 55 -18 87 -66 222 -110 305
l-38 71 99 98 c328 326 518 695 518 1008 0 193 -74 319 -220 373 -80 29 -250
19 -354 -22 -17 -7 -18 -3 -11 72 8 98 -10 153 -60 184 -32 20 -48 20 -676 20
-621 0 -645 -1 -676 -20z m1773 -331 c93 -44 134 -132 134 -284 0 -270 -170
-606 -459 -908 -49 -50 -92 -89 -96 -85 -6 6 15 554 30 788 2 41 7 156 11 255
4 99 10 187 15 197 9 17 73 42 150 58 64 13 165 4 215 -21z m-1732 -333 c101
-79 230 -215 275 -289 64 -108 84 -173 89 -283 5 -121 -11 -195 -68 -309 -53
-108 -132 -213 -166 -221 -49 -12 -76 7 -136 96 -81 121 -213 389 -242 492
-65 228 -36 386 94 519 32 32 61 59 65 59 4 0 44 -29 89 -64z m8256 -381 c119
-17 312 -55 322 -64 4 -3 -4 -50 -17 -103 -36 -147 -49 -274 -42 -417 6 -143
28 -234 84 -351 65 -136 236 -280 332 -280 55 0 105 -17 131 -45 20 -21 22
-31 17 -79 -3 -30 -19 -84 -36 -120 -65 -135 -174 -183 -321 -140 -102 29
-103 29 -157 -10 -28 -20 -95 -56 -149 -81 -55 -25 -110 -51 -124 -58 -68 -34
-120 -388 -90 -610 25 -185 91 -361 204 -540 56 -89 68 -115 68 -150 0 -57
-14 -89 -52 -120 -59 -50 -237 -80 -475 -79 -334 0 -658 76 -970 227 -176 85
-271 153 -297 212 -22 49 -19 97 9 144 9 15 49 46 90 69 285 162 489 478 471
730 -6 81 -32 133 -93 184 -31 25 -50 52 -64 91 -92 246 3 791 211 1209 140
282 242 365 488 395 93 12 321 5 460 -14z m-6920 -867 c29 -76 84 -268 78
-274 -2 -1 -122 -52 -267 -113 l-263 -111 -21 28 c-38 51 -122 125 -216 191
l-94 66 320 5 c285 4 322 7 346 23 42 27 67 75 67 128 0 47 10 139 16 139 1 0
17 -37 34 -82z m313 -593 c216 -537 398 -944 613 -1375 247 -494 411 -756 574
-921 78 -79 105 -100 153 -118 109 -40 226 -21 340 55 82 55 246 233 447 484
371 464 608 673 912 807 208 91 349 119 693 134 395 18 771 16 900 -4 140 -23
386 -73 445 -91 l45 -13 -37 -17 c-96 -42 -151 -124 -152 -226 -1 -110 36
-161 181 -257 225 -147 584 -274 901 -318 222 -30 556 -16 724 31 148 42 221
198 159 339 -12 26 -21 49 -21 51 0 1 37 -10 83 -25 565 -194 1043 -559 1457
-1115 367 -493 665 -1123 795 -1681 63 -271 111 -442 300 -1065 669 -2204 935
-3391 996 -4445 13 -223 5 -575 -13 -586 -42 -26 -870 -199 -952 -199 -7 0
-92 208 -179 440 -253 671 -714 2022 -1313 3845 -507 1543 -454 1390 -489
1390 -24 0 -40 -12 -88 -70 -180 -213 -337 -516 -400 -770 -44 -175 -52 -242
-52 -440 0 -205 9 -272 57 -455 52 -201 100 -304 266 -570 529 -846 722 -1388
761 -2136 l7 -149 -25 -29 c-41 -45 -176 -151 -280 -221 -336 -223 -760 -372
-1243 -437 -138 -19 -211 -22 -473 -22 -187 -1 -356 4 -425 12 -580 64 -1096
196 -1720 440 -329 129 -476 169 -788 217 -190 29 -332 43 -555 54 -92 5 -170
10 -172 12 -2 2 5 40 16 84 223 929 389 2368 453 3920 29 690 43 1533 27 1564
-24 45 -53 28 -162 -96 -407 -462 -832 -783 -1203 -909 -213 -73 -456 -71
-606 3 -158 80 -371 384 -572 817 -310 667 -658 1711 -1007 3019 -108 405
-253 988 -248 994 3 2 170 73 372 158 203 85 370 157 373 160 11 10 22 -13
125 -270z m10391 -10590 c31 -52 84 -128 117 -170 101 -125 156 -166 354 -266
229 -116 318 -175 445 -296 212 -202 451 -550 505 -738 16 -55 16 -58 -2 -84
-48 -64 -166 -47 -370 54 -185 92 -288 165 -462 326 -85 79 -183 167 -218 196
-171 136 -339 164 -358 60 -9 -48 20 -123 112 -283 88 -153 143 -258 143 -274
0 -21 -73 -9 -130 21 -112 59 -229 188 -298 324 -38 76 -209 474 -357 833
-107 258 -112 272 -91 277 11 3 109 23 216 45 107 22 220 47 250 54 87 22 83
24 144 -79z m-1868 -7821 c70 -33 74 -45 110 -383 41 -374 66 -513 143 -795
104 -379 151 -635 151 -826 0 -98 -4 -123 -31 -204 -50 -152 -176 -376 -345
-617 -130 -185 -169 -220 -264 -235 -41 -7 -165 19 -176 37 -2 5 35 68 84 141
269 404 382 677 382 929 0 84 -22 251 -55 430 -14 74 -48 301 -75 504 -28 204
-71 512 -95 686 -25 174 -45 321 -45 327 0 6 19 13 43 15 97 8 141 6 173 -9z
m-306 -11 c0 -4 31 -232 70 -507 38 -276 81 -587 95 -693 14 -105 37 -251 50
-325 70 -367 72 -495 8 -697 -49 -158 -191 -416 -359 -658 -56 -81 -69 -93
-87 -88 -58 17 -262 123 -347 180 -158 106 -224 183 -254 300 -16 61 -21 192
-8 210 4 6 40 32 80 59 85 57 144 120 180 194 18 35 31 51 42 48 8 -3 99 -17
202 -32 152 -21 191 -24 203 -14 18 15 20 54 3 68 -7 5 -99 22 -204 38 l-190
28 4 145 c2 80 6 147 7 149 2 2 96 -11 210 -28 197 -30 208 -31 226 -14 22 20
24 34 7 56 -10 13 -67 25 -220 47 -114 17 -212 31 -218 31 -7 0 -10 91 -10
268 0 280 19 1184 25 1191 3 2 306 34 473 50 6 0 12 -2 12 -6z m-2560 -2422
c242 -58 489 -91 676 -91 l91 0 6 -213 c7 -238 20 -406 43 -577 l16 -115 -154
-150 c-369 -362 -766 -617 -1248 -802 -240 -92 -571 -174 -835 -207 -141 -17
-502 -42 -510 -34 -3 2 -8 52 -11 109 -10 170 30 288 147 435 98 124 300 299
510 444 l71 49 75 -80 c83 -88 194 -166 322 -228 95 -46 125 -50 141 -21 19
36 3 55 -84 94 -47 21 -120 61 -163 89 -80 53 -203 168 -203 191 0 7 58 52
130 99 l129 86 21 -27 c84 -106 341 -238 562 -286 55 -12 79 56 28 81 -14 6
-71 26 -127 43 -56 17 -146 53 -200 80 -95 48 -203 130 -203 153 0 7 31 32 68
57 36 25 95 73 131 108 l64 62 41 -38 c119 -109 319 -202 545 -252 101 -22
124 -16 119 33 l-3 31 -125 32 c-215 55 -364 124 -464 215 -31 28 -56 55 -56
60 0 5 17 35 37 66 42 67 199 388 234 480 17 45 28 62 39 58 8 -2 71 -18 140
-34z m879 -1207 c44 -201 27 -305 -73 -426 -206 -250 -678 -552 -1118 -717
-323 -121 -756 -205 -1058 -205 -232 0 -325 24 -421 111 -39 35 -99 125 -99
149 0 7 63 15 173 23 94 7 233 19 307 27 794 89 1587 469 2140 1025 63 63 117
116 120 117 3 1 16 -46 29 -104z"/>
<path d="M34922 23288 c-7 -7 -12 -19 -12 -27 0 -12 173 -368 793 -1631 88
-179 219 -447 292 -596 73 -149 138 -274 144 -278 19 -12 59 2 66 23 4 13 -84
202 -271 583 -152 309 -425 867 -606 1238 -182 371 -335 681 -341 688 -12 15
-49 16 -65 0z"/>
<path d="M34742 22438 c-7 -7 -12 -18 -12 -25 0 -25 332 -818 350 -837 22 -23
58 -14 66 18 3 15 -48 151 -162 427 -91 222 -171 410 -176 417 -13 15 -50 16
-66 0z"/>
<path d="M28016 28894 c-9 -8 -16 -23 -16 -32 0 -18 170 -192 188 -192 21 0
52 39 45 57 -9 28 -166 183 -185 183 -9 0 -24 -7 -32 -16z"/>
<path d="M28778 28816 c-86 -82 -101 -109 -76 -134 27 -27 55 -11 142 78 85
86 88 91 74 112 -27 41 -48 32 -140 -56z"/>
<path d="M26340 28475 c-11 -13 -6 -152 24 -738 20 -397 48 -945 61 -1217 14
-272 32 -628 40 -790 34 -658 55 -1081 71 -1385 8 -176 20 -327 25 -337 5 -10
20 -18 33 -18 50 0 50 0 27 443 -12 226 -35 682 -51 1012 -17 330 -44 863 -60
1185 -49 950 -90 1780 -90 1805 0 46 -53 72 -80 40z"/>
<path d="M28079 28132 c-49 -48 -89 -93 -89 -100 0 -15 36 -52 51 -52 18 0
189 172 189 190 0 19 -30 50 -49 50 -7 0 -53 -39 -102 -88z"/>
<path d="M28696 28188 c-10 -14 -12 -27 -6 -37 17 -32 151 -170 171 -176 23
-8 59 19 59 43 0 21 -170 192 -191 192 -10 0 -25 -10 -33 -22z"/>
<path d="M32321 11234 c-19 -14 -21 -24 -21 -138 0 -125 6 -146 41 -146 40 0
49 26 49 141 0 61 -4 118 -10 128 -14 27 -35 32 -59 15z"/>
<path d="M32711 10652 c-21 -7 -32 -41 -21 -62 10 -18 21 -20 141 -20 l129 0
12 26 c11 23 10 29 -12 46 -21 17 -37 19 -131 16 -59 -2 -112 -5 -118 -6z"/>
<path d="M31728 10639 c-21 -12 -24 -49 -6 -67 17 -17 249 -17 266 0 7 7 12
21 12 33 0 39 -18 45 -139 45 -64 0 -124 -5 -133 -11z"/>
<path d="M32316 10254 c-13 -12 -16 -40 -16 -134 0 -122 9 -150 45 -150 36 0
45 29 45 149 0 102 -3 120 -18 134 -23 21 -36 21 -56 1z"/>
<path d="M21256 8574 c-19 -18 -21 -45 -4 -62 17 -17 3289 -17 3306 0 7 7 12
21 12 33 0 12 -5 26 -12 33 -9 9 -389 12 -1649 12 -1475 0 -1639 -2 -1653 -16z"/>
</g>
</svg>
