<?xml version="1.0" standalone="no"?>
<!DOCTYPE svg PUBLIC "-//W3C//DTD SVG 20010904//EN"
 "http://www.w3.org/TR/2001/REC-SVG-20010904/DTD/svg10.dtd">
<svg version="1.0" xmlns="http://www.w3.org/2000/svg"
 width="5209.000000pt" height="5210.000000pt" viewBox="0 0 5209.000000 5210.000000"
 preserveAspectRatio="xMidYMid meet">

<g transform="translate(0.000000,5210.000000) scale(0.100000,-0.100000)"
fill="#000000" stroke="none">
<path d="M38140 45094 c-4232 -15 -3902 -8 -4038 -75 -128 -63 -242 -185 -299
-321 -27 -62 -27 -66 -34 -388 -4 -179 -7 -884 -8 -1567 l-1 -1243 -1695 0
-1695 0 0 228 c0 126 -5 255 -11 288 -30 164 -153 310 -318 376 l-56 23 -1587
5 -1588 5 -3 450 c-3 415 -5 460 -26 574 -72 393 -241 720 -516 997 -137 137
-250 225 -405 313 -288 165 -590 244 -935 244 -325 0 -579 -59 -860 -201 -514
-258 -878 -731 -1002 -1301 -24 -110 -26 -142 -36 -598 l-11 -483 -1556 0
c-1712 0 -1609 4 -1731 -61 -71 -38 -167 -136 -203 -207 -49 -97 -56 -146 -56
-409 l0 -243 -2787 0 c-3030 0 -2870 3 -3046 -55 -43 -14 -99 -36 -125 -49
-46 -23 -53 -24 -397 -29 -300 -4 -363 -8 -440 -25 -396 -87 -691 -353 -828
-745 l-32 -92 -6 -1405 c-4 -773 -7 -2439 -8 -3702 l-1 -2298 63 0 c85 0 227
-24 320 -55 424 -138 568 -510 362 -930 -49 -100 -149 -231 -219 -288 -47 -39
-149 -97 -170 -97 -10 0 -36 60 -36 83 0 3 28 21 62 39 76 40 155 117 215 210
169 261 185 527 44 703 -158 195 -569 294 -797 190 -29 -12 -101 -55 -162 -94
-250 -161 -465 -240 -787 -291 -72 -11 -152 -25 -180 -31 -152 -34 -334 -189
-417 -355 -91 -182 -89 -281 10 -492 111 -236 133 -335 131 -594 -1 -159 0
-172 23 -216 32 -63 87 -92 175 -92 84 0 103 -18 103 -98 1 -119 43 -247 112
-334 35 -45 114 -85 186 -94 l52 -7 0 -101 c0 -181 -46 -302 -155 -411 -91
-91 -154 -117 -370 -155 -694 -120 -1335 -336 -1685 -567 -574 -379 -1047
-1099 -1399 -2126 -110 -323 -215 -714 -280 -1049 -36 -182 -38 -226 -14 -235
9 -4 64 0 122 9 58 8 109 12 112 9 3 -3 1 -67 -4 -141 -23 -321 32 -748 138
-1065 162 -490 457 -873 856 -1113 l78 -47 1 -65 c0 -36 -23 -861 -50 -1834
-45 -1586 -49 -1771 -35 -1785 17 -17 30 -14 178 40 48 17 90 30 92 27 3 -3
-2 -119 -10 -259 -8 -140 -40 -679 -70 -1199 -110 -1873 -200 -3271 -258
-3965 -30 -377 -32 -408 -31 -940 0 -654 21 -1034 100 -1785 56 -536 191
-1533 229 -1698 l6 -23 144 7 c138 7 145 6 145 -12 0 -10 9 -100 20 -198 l19
-180 -26 -25 c-76 -75 -240 -375 -328 -601 -56 -141 -129 -363 -185 -555 -86
-297 -200 -771 -200 -828 0 -161 111 -303 265 -341 174 -43 691 -67 1005 -47
395 25 490 49 580 148 62 67 90 140 90 232 0 52 -285 1880 -316 2024 -4 17
-15 32 -30 37 l-24 10 0 194 0 194 60 4 c33 2 61 6 63 9 2 2 11 252 21 554 45
1464 107 2828 152 3317 13 151 18 174 48 240 53 117 188 457 261 658 212 582
333 1036 424 1585 74 444 202 985 391 1650 138 484 299 1005 312 1005 4 0 8
-15 8 -33 0 -51 369 -6925 391 -7272 5 -93 14 -316 19 -495 5 -179 14 -353 20
-387 7 -34 22 -232 33 -440 l22 -378 92 -3 91 -3 6 -37 c3 -20 8 -82 11 -137
3 -55 8 -128 11 -162 l6 -63 -31 0 c-42 0 -45 -9 -81 -258 -48 -338 -90 -905
-76 -1049 10 -119 88 -232 191 -279 87 -40 1544 -367 1880 -423 225 -37 415
-35 614 5 269 54 535 190 619 316 24 37 27 51 27 122 0 76 -3 86 -43 161 -112
214 -405 492 -782 744 -249 166 -344 245 -710 590 -374 352 -458 400 -589 341
-24 -11 -45 -20 -48 -20 -2 0 -3 19 -1 43 l3 42 248 3 c244 2 250 2 350 -25
l102 -28 2562 -3 2563 -2 0 -585 c0 -567 1 -585 19 -595 14 -7 2675 -10 8506
-10 l8485 0 -5 -22 c-3 -13 -24 -126 -47 -253 -67 -367 -58 -513 45 -710 60
-114 201 -255 313 -312 136 -71 331 -111 473 -98 207 19 409 125 533 279 58
72 120 190 143 271 10 33 19 61 20 63 1 1 36 -6 76 -18 104 -28 349 -75 509
-97 125 -17 239 -18 1565 -18 1327 0 1440 1 1565 18 161 22 358 59 494 93 54
14 100 24 101 22 2 -2 15 -39 30 -83 152 -457 660 -662 1110 -446 159 76 286
201 359 354 50 104 68 177 73 307 4 106 0 137 -46 394 -28 154 -50 280 -48
280 1 1 52 47 113 104 187 171 406 426 555 646 l60 89 282 -2 c156 -1 309 3
342 9 174 29 338 182 454 425 143 297 211 675 198 1105 -23 746 -301 1301
-676 1347 l-63 8 -43 170 c-135 534 -387 1043 -723 1458 l-63 79 40 96 c74
181 132 400 163 617 19 136 16 485 -5 625 -38 245 -102 460 -204 687 -92 204
-131 243 -242 243 -79 0 -133 -28 -166 -85 -12 -22 -130 -345 -261 -718 -232
-663 -238 -677 -258 -663 -12 7 -22 27 -24 45 -2 17 -29 314 -61 660 -54 587
-60 632 -82 672 -47 85 -158 133 -251 108 -87 -23 -236 -122 -347 -232 -174
-170 -299 -392 -377 -667 -15 -52 -28 -96 -29 -98 -2 -2 -63 8 -136 22 -337
64 -247 61 -1799 61 -778 0 -1449 -2 -1490 -5 l-75 -5 0 1645 0 1645 175 5
c193 6 221 13 278 70 53 53 66 87 67 170 l0 75 -793 2065 c-436 1136 -804
2082 -817 2102 -14 20 -46 50 -72 65 -48 28 -50 28 -263 33 l-215 5 -3 513
c-1 281 0 512 3 512 3 0 42 -27 87 -61 238 -176 509 -292 808 -345 127 -23
450 -26 575 -6 751 121 1319 651 1472 1371 24 113 27 147 27 336 1 180 -2 226
-22 323 -46 226 -136 441 -267 637 -406 606 -1158 906 -1890 755 -185 -38
-463 -145 -478 -184 -10 -26 10 -56 37 -56 13 0 58 16 100 36 108 49 264 99
392 124 138 28 384 37 520 21 682 -82 1244 -533 1449 -1166 149 -457 76 -975
-194 -1377 -223 -330 -546 -567 -930 -680 -285 -83 -626 -90 -913 -17 -496
125 -903 450 -1122 894 -225 455 -231 945 -19 1396 52 112 54 142 6 147 -31 3
-33 1 -78 -88 -189 -377 -221 -859 -84 -1275 41 -125 156 -353 231 -457 35
-48 96 -123 136 -167 l72 -80 0 -552 0 -552 -1427 7 c-786 3 -1665 9 -1956 13
l-527 6 -23 46 c-49 100 -171 189 -288 211 -29 6 -261 10 -531 10 l-479 0 37
-45 36 -45 452 0 c395 0 459 -2 502 -17 66 -22 129 -66 165 -116 l31 -42 -69
-3 c-37 -2 -264 -2 -504 0 l-436 3 81 -100 c558 -681 3535 -4368 3548 -4395
19 -36 17 -81 -4 -107 -8 -10 295 -13 1511 -13 l1521 0 0 -1655 c0 -910 -3
-1655 -8 -1655 -29 0 -316 -56 -416 -81 -522 -131 -1056 -395 -1458 -718 l-88
-70 -467 -3 c-462 -3 -469 -3 -509 -25 -23 -12 -53 -39 -65 -60 l-24 -38 -5
-655 -5 -655 -57 -145 c-101 -259 -178 -546 -218 -818 -10 -68 -20 -125 -23
-128 -3 -3 -29 12 -59 34 -29 22 -77 52 -105 66 -31 15 -59 38 -67 54 -8 15
-36 52 -64 83 l-49 57 -6 2393 c-4 1317 -10 2748 -14 3182 l-6 787 -41 0 -41
0 2 -717 c2 -395 7 -1809 12 -3143 5 -1334 8 -2426 7 -2427 -2 -2 -42 17 -89
41 -161 82 -336 111 -495 82 -86 -15 -210 -67 -269 -112 -17 -13 -34 -24 -37
-24 -3 0 -6 447 -6 993 0 942 -1 994 -19 1033 -27 58 -92 111 -155 123 -31 6
-441 11 -1061 13 l-1010 2 -40 -21 c-46 -24 -75 -54 -101 -103 -18 -34 -19
-103 -22 -1960 -2 -1430 0 -1939 8 -1979 9 -39 23 -65 52 -97 73 -79 -3 -74
1164 -77 l1040 -2 42 28 c23 15 54 46 69 69 l28 42 5 902 5 903 32 33 c18 19
57 49 88 67 215 131 476 117 708 -36 56 -37 67 -49 67 -72 0 -28 0 -28 -82
-34 -155 -11 -292 -72 -399 -178 -99 -99 -142 -222 -120 -345 46 -249 292
-399 532 -324 35 10 64 18 66 17 1 -2 6 -605 9 -1340 l7 -1337 -2094 2 -2094
3 -5 2805 c-5 2711 -6 2806 -24 2840 -26 49 -74 98 -121 123 l-40 22 -1316 3
-1317 2 -63 -33 c-69 -35 -119 -95 -139 -165 -7 -25 -10 -957 -10 -2819 l0
-2783 -2069 0 -2069 0 -6 173 c-3 94 -15 2348 -26 5007 -12 2659 -24 4847 -28
4862 l-7 27 -39 -45 -38 -45 21 -4222 c11 -2322 23 -4567 27 -4989 l6 -768
-1861 0 -1861 0 0 5015 0 5015 1509 0 1509 0 -5 39 c-3 22 -3 51 1 66 4 14
853 1041 1888 2283 l1881 2257 -1087 9 -1086 9 0 63 0 64 1148 0 1147 0 33 40
c17 21 32 41 32 44 0 3 -531 6 -1180 6 l-1180 0 2 548 3 547 1641 3 1641 2 32
40 32 40 -1673 2 -1673 3 0 330 0 330 1952 3 1952 2 30 38 31 37 -1980 3
c-1748 2 -1981 4 -1986 17 -5 13 -79 15 -574 15 -493 0 -569 -2 -574 -15 -5
-13 -180 -15 -1428 -17 l-1423 -3 -70 -34 c-87 -43 -153 -110 -197 -198 -31
-64 -33 -73 -33 -178 0 -103 2 -114 32 -177 41 -88 113 -160 201 -201 l67 -32
1425 -5 1425 -5 0 -545 0 -545 -1415 -5 c-1266 -4 -1419 -7 -1457 -21 -111
-43 -205 -128 -251 -227 -37 -81 -44 -231 -13 -313 60 -158 188 -259 352 -276
32 -3 59 -10 59 -15 0 -5 -305 -844 -677 -1866 -633 -1737 -677 -1861 -677
-1922 0 -97 44 -168 134 -216 30 -16 63 -19 213 -22 l177 -4 -2 -4416 -3
-4417 -2495 -3 c-1812 -2 -2517 0 -2575 8 -186 27 -373 111 -507 229 l-44 40
62 328 c208 1083 365 2168 433 2983 49 576 58 942 37 1395 -24 510 -36 1172
-36 2035 0 730 18 2481 26 2489 2 2 45 7 96 12 156 15 156 15 167 57 13 47 37
241 50 402 30 353 36 605 36 1465 -1 978 -18 1692 -71 2857 l-15 347 117 418
c64 230 120 421 123 425 3 4 91 -22 194 -57 206 -71 425 -133 584 -167 l102
-21 3 -496 3 -496 32 -67 c56 -119 149 -200 274 -239 58 -18 108 -19 1022 -19
1043 0 1012 -1 1116 56 65 35 140 109 174 172 58 106 57 95 57 967 l0 801 138
139 c149 152 247 264 364 420 274 366 515 813 697 1292 59 158 151 441 151
468 0 21 15 27 97 36 41 4 102 15 136 24 82 20 230 94 292 145 198 165 294
445 226 661 -24 75 -103 194 -156 235 l-35 26 78 87 c183 202 317 373 360 456
31 60 42 197 22 261 -18 57 -57 114 -79 114 -37 0 -512 -381 -630 -506 -176
-186 -414 -507 -635 -856 -149 -236 -305 -426 -566 -688 -599 -600 -1223 -967
-1820 -1069 -296 -51 -679 -34 -990 44 -153 39 -400 128 -400 144 0 4 45 69
100 146 60 83 100 149 100 164 0 27 -299 336 -779 805 -804 784 -1230 1133
-1485 1216 l-39 12 8 3207 c4 1763 11 4252 14 5531 l7 2325 39 115 c22 64 60
150 84 191 122 214 332 386 566 463 175 59 26 56 3039 56 l2769 0 -6 -893 c-4
-577 -3 -916 3 -958 30 -194 192 -363 387 -404 102 -22 10004 -22 10106 0 184
39 335 181 382 360 12 49 15 137 15 510 0 249 3 662 7 918 l6 467 1695 0 1695
0 -7 -1162 c-4 -640 -7 -2215 -7 -3500 l-1 -2338 -7077 -2 -7076 -3 -56 -23
c-120 -48 -215 -143 -255 -254 -9 -24 -18 -74 -21 -113 -14 -173 78 -330 237
-408 l65 -32 7095 -5 7095 -5 6 -1670 c7 -1867 0 -1714 79 -1833 48 -71 122
-125 209 -153 61 -18 101 -19 1123 -19 l1061 0 -5 -1627 -4 -1626 42 47 41 47
8 1577 c4 867 9 1579 12 1582 2 3 1601 10 3552 16 3171 11 3554 14 3609 28
207 53 384 226 438 431 11 41 14 1278 14 7226 0 6565 -1 7180 -16 7230 -42
143 -155 247 -302 278 -63 13 -195 13 -5482 -5z m5528 -103 c67 -30 141 -110
167 -182 20 -54 20 -79 20 -7209 0 -6957 -1 -7157 -19 -7223 -43 -158 -181
-296 -355 -354 -41 -14 -420 -17 -3426 -28 -4843 -19 -5919 -19 -5977 -1 -92
27 -167 99 -205 196 -16 42 -18 159 -25 1635 -10 1981 -10 8003 1 10720 l7
2040 22 59 c28 75 55 119 112 180 59 64 148 121 229 147 l66 21 3400 13 c1870
6 3969 12 4665 11 l1265 -1 53 -24z m-18453 -96 c357 -62 669 -216 928 -456
321 -298 516 -685 567 -1124 11 -99 12 -1474 1 -2455 l-6 -585 -32 -67 c-19
-40 -53 -89 -83 -118 -29 -30 -78 -64 -118 -83 l-67 -32 -1474 -3 c-1325 -2
-1481 -1 -1530 14 -110 31 -210 117 -259 222 l-27 57 -3 1435 c-2 964 0 1476
8 1560 31 368 165 701 396 987 299 368 728 603 1214 663 104 12 376 4 485 -15z
m-2195 -3583 c0 -907 2 -1024 16 -1073 50 -169 176 -295 342 -340 63 -18 135
-19 1527 -19 1596 0 1509 -3 1633 58 72 35 169 132 205 203 54 109 57 132 57
539 0 206 3 662 7 1013 l6 637 1557 0 c1701 0 1605 3 1706 -56 62 -36 131
-116 167 -192 l32 -67 3 -490 c1 -269 -1 -827 -6 -1240 l-7 -750 -28 -57 c-36
-74 -112 -156 -174 -191 -115 -62 314 -57 -5153 -57 -4460 0 -4992 2 -5045 15
-159 41 -278 170 -305 330 -7 40 -8 454 -2 1255 l8 1195 26 58 c29 61 110 154
165 189 19 11 60 29 91 39 54 17 139 18 1615 18 l1557 1 0 -1018z m10732
-7319 c2 -181 2 -331 0 -335 -5 -12 -14060 -10 -14123 2 -109 21 -194 84 -246
182 -24 47 -28 64 -28 143 0 74 5 98 24 138 44 90 135 164 228 186 22 5 3025
9 7089 10 l7052 1 4 -327z m-22004 -1850 c138 -65 261 -254 322 -493 34 -132
69 -190 193 -313 68 -68 107 -114 105 -125 -2 -9 -29 -31 -61 -48 -31 -16 -62
-35 -69 -42 -8 -8 -12 -72 -13 -199 -1 -144 -5 -202 -18 -246 -70 -242 -234
-356 -453 -318 -175 31 -351 146 -475 310 -21 29 -29 33 -51 28 -63 -16 -31
-93 85 -204 104 -99 212 -163 345 -203 l72 -22 0 -59 c0 -198 111 -424 261
-535 29 -21 84 -55 122 -75 l70 -37 -44 -28 c-24 -15 -89 -49 -144 -75 -332
-158 -684 -196 -1054 -113 -149 33 -454 144 -439 159 2 2 41 20 87 40 154 66
256 156 321 284 61 122 63 136 68 509 2 189 1 354 -2 367 -4 16 -21 31 -49 43
-116 52 -188 208 -146 319 16 44 69 92 108 99 46 8 177 80 214 115 41 41 36
80 -28 232 -31 72 -53 137 -51 144 8 19 53 38 185 77 197 59 261 101 261 172
0 86 37 189 83 232 50 47 104 49 195 5z m8339 -2180 c15 -54 6 -131 -21 -186
-30 -63 -188 -261 -350 -441 -75 -83 -116 -137 -116 -151 0 -16 17 -36 55 -64
221 -167 241 -433 53 -687 -111 -149 -335 -252 -549 -254 -33 0 -61 -5 -66
-12 -5 -7 -22 -58 -38 -113 -186 -671 -543 -1365 -955 -1859 -746 -894 -1721
-1251 -2882 -1056 -187 31 -471 104 -683 175 -228 76 -265 91 -265 108 0 7 69
258 153 557 l153 545 204 285 c112 157 205 287 206 289 2 2 45 -15 96 -37 188
-80 409 -138 643 -168 180 -23 531 -23 680 0 644 100 1287 469 1920 1102 275
276 433 471 615 759 193 306 420 610 588 787 79 83 521 448 542 448 6 0 13
-12 17 -27z m-7619 -423 c274 -45 480 -102 612 -171 269 -140 807 -619 1678
-1492 l394 -394 -242 -337 c-133 -185 -244 -335 -247 -332 -2 2 7 47 21 99 14
52 26 97 26 101 0 3 -669 6 -1487 6 l-1488 0 -305 -1091 c-168 -601 -310
-1098 -315 -1106 -13 -17 -280 -85 -445 -112 -279 -46 -554 -52 -755 -17 -681
122 -1060 638 -1094 1490 -5 131 -9 161 -22 169 -13 8 -166 -56 -690 -290
l-674 -301 -184 -29 -183 -30 6 46 c10 77 91 426 141 606 240 872 561 1565
959 2070 43 55 144 165 225 245 228 226 402 343 685 464 288 122 633 229 976
304 278 61 265 60 340 16 141 -83 370 -165 570 -206 101 -20 143 -23 350 -23
264 1 346 13 541 81 159 55 459 215 459 245 0 12 8 12 148 -11z m-3718 -3605
c24 -213 90 -446 177 -619 184 -367 483 -601 885 -690 418 -93 929 -36 1558
174 233 78 290 103 290 129 0 11 -13 75 -30 142 -40 166 -61 322 -62 476 -1
143 8 216 25 210 22 -7 77 -101 106 -183 26 -72 45 -149 66 -267 8 -46 62
-110 119 -139 181 -92 537 -71 1056 63 157 41 217 52 306 56 131 7 194 -1 226
-27 l23 -18 -19 -37 c-59 -110 -354 -309 -731 -495 -197 -96 -354 -159 -510
-202 -107 -29 -134 -33 -250 -33 -117 0 -134 2 -168 23 -21 12 -46 22 -56 22
-10 0 -55 -47 -108 -112 -50 -62 -142 -167 -204 -234 -609 -646 -1259 -1023
-1889 -1095 -143 -16 -414 -6 -545 21 -489 99 -899 320 -1177 635 -364 412
-553 1005 -536 1678 3 103 7 189 9 192 3 2 322 146 709 319 l705 315 7 -102
c4 -56 12 -147 18 -202z m8963 -1017 c-2 -487 -7 -772 -14 -805 -23 -117 -144
-238 -262 -263 -37 -8 -325 -10 -1012 -8 l-960 3 -56 28 c-70 34 -142 109
-177 185 l-27 57 0 465 0 465 25 -1 c14 0 88 -9 165 -20 173 -23 630 -26 795
-6 521 65 1000 259 1410 571 58 44 107 80 110 81 3 0 4 -339 3 -752z m4682
137 l0 -330 -1365 -3 c-983 -2 -1382 0 -1425 8 -210 40 -328 247 -254 445 23
61 93 141 150 171 82 43 69 42 1514 41 l1380 -2 0 -330z m-8461 -1062 c55
-1412 61 -1662 61 -2703 0 -1006 -5 -1188 -41 -1560 -15 -155 -32 -281 -39
-288 -5 -6 -278 -29 -490 -42 -247 -15 -752 -15 -930 0 -268 22 -452 57 -611
116 -384 143 -1014 266 -1684 330 -229 21 -814 30 -1021 15 -309 -22 -575 -70
-786 -140 -109 -37 -113 -37 -113 -17 1 140 101 3500 104 3504 3 3 41 -11 83
-30 160 -73 387 -142 578 -175 158 -27 481 -24 650 6 431 76 874 287 1280 607
l100 79 1355 5 1355 5 64 228 c35 125 67 227 71 227 4 0 10 -75 14 -167z
m8456 -603 l0 -59 -1174 6 c-1106 6 -1177 5 -1221 -11 -55 -21 -100 -58 -121
-98 -8 -16 -46 -113 -84 -216 -37 -103 -71 -195 -75 -204 -16 -41 -166 -13
-251 45 -156 108 -184 336 -58 476 53 59 101 91 164 107 34 10 370 13 1433 13
l1387 1 0 -60z m19950 -7228 c26 -26 39 -49 43 -77 4 -22 32 -319 62 -660 31
-341 58 -630 60 -642 3 -14 52 -52 148 -116 838 -555 1406 -1378 1621 -2349
l6 -26 -233 -4 c-213 -3 -237 -6 -289 -27 -255 -101 -451 -452 -540 -966 -20
-116 -23 -164 -23 -440 0 -347 10 -443 70 -680 49 -193 135 -393 219 -510 55
-76 145 -164 204 -197 28 -16 52 -33 52 -38 0 -14 -149 -221 -237 -329 -122
-150 -415 -439 -568 -560 -508 -404 -1092 -667 -1720 -776 -297 -51 -268 -50
-1745 -50 -1280 0 -1396 1 -1525 18 -854 111 -1598 465 -2198 1047 -632 611
-1027 1409 -1134 2290 -25 204 -25 658 0 860 56 452 172 842 372 1245 188 379
384 657 673 956 557 576 1273 961 2044 1099 312 56 240 53 1678 57 933 3 1378
1 1478 -7 180 -14 363 -41 516 -75 143 -32 144 -31 170 82 44 187 131 389 229
533 130 188 374 380 486 380 37 0 49 -6 81 -38z m-9320 -1797 c37 -19 69 -57
80 -96 6 -21 10 -414 10 -1035 l0 -1001 -40 -59 c-22 -33 -40 -69 -40 -80 0
-30 25 -48 55 -40 l25 6 0 -802 c0 -498 -4 -817 -10 -839 -5 -19 -24 -48 -41
-65 l-30 -29 -852 -3 c-469 -2 -935 0 -1036 4 l-184 6 -41 38 -41 39 0 1945 0
1945 21 28 c11 15 36 36 55 46 32 17 85 17 1039 11 783 -5 1011 -9 1030 -19z
m2750 16 c0 -4 -31 -35 -69 -69 -247 -220 -607 -697 -757 -1004 -16 -32 -32
-58 -36 -58 -13 0 -10 1032 3 1069 7 18 26 41 43 52 29 18 55 19 424 19 215 0
392 -4 392 -9z m-26069 -451 c12 -7 19 -21 19 -40 0 -19 -7 -33 -19 -40 -12
-6 -103 -10 -227 -10 -179 0 -210 2 -226 17 -22 20 -23 41 -1 65 15 16 35 18
225 18 125 0 217 -4 229 -10z m19725 -124 c11 -18 13 -30 6 -42 -22 -39 -1679
-1932 -1700 -1943 -19 -9 -27 -7 -48 14 -22 22 -23 27 -12 48 7 13 391 457
852 986 662 758 844 961 862 961 14 0 30 -10 40 -24z m-15998 -145 c2 -12 -36
-89 -96 -193 -450 -782 -739 -1482 -782 -1893 -16 -149 -17 -154 -45 -167 -21
-9 -28 -8 -45 7 -27 24 -26 95 1 256 54 316 201 718 444 1214 182 370 425 802
460 815 26 10 59 -10 63 -39z m15890 -1163 c7 -7 12 -22 12 -34 0 -15 -194
-239 -600 -695 -330 -371 -612 -683 -625 -693 -21 -16 -28 -18 -50 -8 -60 27
-58 29 590 757 634 711 634 712 673 673z m15188 -319 c208 -78 396 -404 478
-828 38 -197 49 -339 43 -574 -5 -235 -21 -363 -72 -562 -119 -474 -363 -764
-602 -716 -146 29 -281 166 -389 395 -257 547 -250 1407 16 1938 48 97 90 158
154 227 63 66 94 88 165 117 70 29 134 30 207 3z m-10416 -443 c0 -252 -3
-316 -14 -325 -28 -23 -131 -51 -190 -51 -115 0 -237 84 -289 198 -31 68 -30
170 2 237 34 70 126 155 213 198 87 43 132 55 216 56 l62 1 0 -314z m164 234
c56 -141 36 -348 -44 -441 l-29 -34 -1 267 0 267 29 -10 c20 -7 34 -22 45 -49z
m165 -64 c89 -66 82 -32 85 -413 2 -282 6 -364 24 -495 62 -450 172 -808 372
-1213 196 -396 422 -714 726 -1020 68 -69 124 -128 124 -130 0 -3 -350 -5
-778 -5 l-779 0 -6 668 c-4 367 -7 982 -7 1367 l0 701 54 53 c60 60 109 148
127 230 6 29 9 106 8 172 -2 65 -2 119 0 119 2 0 24 -15 50 -34z m-21492
-2127 l-7 -151 -71 -76 c-39 -43 -114 -134 -167 -204 -52 -71 -98 -128 -101
-128 -11 0 -435 181 -443 188 -8 8 -40 421 -33 432 2 4 85 10 183 13 200 7
416 29 543 56 46 10 88 19 93 20 5 0 6 -61 3 -150z m-3417 -170 l0 -221 -39
35 c-21 19 -52 38 -68 41 -40 9 -348 -31 -384 -49 -32 -17 -64 -58 -104 -133
-16 -29 -32 -49 -36 -45 -8 9 -65 550 -58 557 6 6 469 33 597 35 l92 1 0 -221z
m3736 0 c84 -59 132 -101 364 -319 334 -315 445 -406 715 -588 455 -306 775
-648 775 -827 0 -47 -2 -52 -59 -105 -202 -191 -625 -303 -981 -260 -231 29
-1905 396 -1980 435 -42 22 -93 75 -115 121 -26 53 -30 160 -16 414 18 315 77
839 96 858 3 3 124 -45 270 -106 146 -62 277 -112 293 -112 21 0 33 8 47 32
43 73 201 273 278 351 154 158 211 177 313 106z m-3839 -251 c14 -16 28 -58
43 -133 12 -60 27 -116 33 -123 6 -7 22 -12 36 -10 25 3 41 24 61 82 6 16 12
27 15 25 2 -3 70 -412 150 -909 156 -968 153 -947 111 -1028 -19 -35 -83 -96
-123 -116 -71 -36 -404 -66 -723 -66 -338 0 -664 31 -746 71 -84 40 -143 135
-144 227 0 55 98 464 185 772 94 334 206 641 308 845 51 102 146 259 153 252
3 -2 19 -42 37 -88 32 -82 34 -84 66 -84 33 0 36 4 98 115 35 63 73 124 83
134 15 15 49 24 147 37 177 23 186 23 210 -3z"/>
<path d="M38645 43173 c-1561 -85 -2961 -1001 -3650 -2386 -221 -443 -349
-889 -400 -1387 -22 -209 -17 -657 10 -850 143 -1058 657 -1937 1502 -2571
501 -376 1148 -648 1768 -743 472 -72 978 -65 1445 20 1172 215 2213 903 2853
1885 620 951 815 2057 552 3127 -249 1013 -919 1879 -1860 2403 -664 370
-1438 545 -2220 502z m382 -150 c-4 -38 -41 -617 -82 -1288 -42 -671 -78
-1239 -81 -1262 l-5 -43 -96 0 c-545 0 -1040 -325 -1249 -821 -109 -259 -124
-588 -37 -848 121 -361 410 -646 780 -766 247 -81 559 -79 823 5 103 33 298
134 385 200 44 33 82 60 85 60 3 0 86 -89 185 -197 99 -109 498 -548 887 -975
l708 -777 -105 -84 c-379 -303 -787 -535 -1216 -690 -1105 -401 -2267 -344
-3269 158 -629 315 -1175 812 -1532 1395 -441 719 -625 1593 -512 2425 58 427
191 860 381 1239 413 826 1123 1521 1960 1918 491 233 993 364 1578 411 22 2
125 4 229 5 l189 2 -6 -67z m2851 -1321 c447 -530 731 -1183 828 -1902 22
-167 30 -598 14 -784 -39 -467 -169 -935 -379 -1371 -193 -402 -446 -758 -777
-1094 l-170 -174 -858 942 c-471 518 -871 957 -887 976 l-31 35 57 62 c147
166 251 374 301 603 23 109 24 340 1 456 -36 182 -108 346 -212 484 -36 48
-65 90 -65 93 0 4 435 443 968 975 l967 968 78 -83 c43 -46 117 -129 165 -186z
m-2922 -1377 c457 -78 803 -392 921 -833 23 -86 26 -116 26 -262 0 -145 -3
-176 -25 -261 -66 -246 -167 -418 -345 -590 -450 -434 -1131 -477 -1609 -103
-186 145 -318 348 -384 589 -28 102 -38 330 -20 443 17 105 72 271 121 362
196 364 540 599 969 664 66 9 266 4 346 -9z"/>
<path d="M38595 34273 c-1980 -29 -3615 -56 -3633 -59 -48 -8 -99 -63 -106
-116 -3 -24 -8 -173 -12 -333 l-6 -290 24 -35 c13 -19 37 -41 52 -49 24 -11
605 -5 3900 44 3490 52 3874 59 3906 74 66 31 76 60 84 238 13 323 11 485 -8
520 -31 60 -46 63 -338 62 -145 -1 -1883 -26 -3863 -56z"/>
<path d="M38785 32709 c-3086 -46 -3885 -61 -3905 -72 -46 -24 -48 -41 -52
-426 l-3 -364 25 -19 c25 -18 93 -17 3810 37 2082 30 3850 58 3929 61 202 9
187 -15 195 300 3 137 8 302 11 366 5 111 4 119 -18 144 -17 19 -34 27 -67 29
-25 2 -1791 -23 -3925 -56z"/>
<path d="M24814 43970 c-216 -30 -414 -150 -540 -326 -163 -228 -192 -540 -74
-793 85 -181 243 -328 429 -400 109 -42 194 -54 335 -49 101 4 136 10 208 35
257 89 446 289 520 550 30 107 30 293 0 406 -56 205 -200 387 -389 489 -136
73 -336 110 -489 88z m244 -96 c382 -78 632 -443 558 -814 -98 -489 -665 -731
-1078 -461 -225 147 -353 416 -319 666 24 167 84 287 206 411 173 175 400 246
633 198z"/>
<path d="M12592 22998 c-5 -7 -27 -47 -47 -88 -127 -253 -336 -531 -590 -785
-454 -454 -1024 -794 -1694 -1009 -154 -50 -500 -138 -616 -157 -95 -16 -107
-23 -103 -62 4 -43 28 -45 186 -12 632 131 1168 345 1655 662 450 292 824 660
1099 1078 74 112 188 321 188 343 0 32 -58 54 -78 30z"/>
<path d="M41932 15723 c-228 -310 -348 -630 -328 -874 26 -312 203 -539 419
-539 95 0 151 30 187 100 31 62 34 118 10 241 -30 161 -231 1133 -235 1137 -1
2 -25 -28 -53 -65z"/>
<path d="M37742 14990 c-36 -22 -62 -72 -62 -117 0 -36 31 -87 67 -110 26 -17
101 -18 1608 -18 1492 0 1582 1 1612 18 83 45 85 190 3 232 -26 13 -217 15
-1612 15 -1570 0 -1583 0 -1616 -20z"/>
<path d="M42482 12534 c-126 -63 -178 -212 -118 -339 47 -99 126 -148 237
-148 106 0 182 50 234 153 24 46 24 151 1 205 -57 133 -224 194 -354 129z m93
-99 c62 -61 -3 -162 -86 -133 -39 13 -64 64 -50 102 22 57 94 74 136 31z"/>
<path d="M31953 12800 c-529 -593 -598 -674 -598 -703 0 -28 3 -32 30 -35 28
-3 67 39 625 664 378 423 596 675 598 691 4 29 -14 53 -39 53 -11 0 -237 -246
-616 -670z"/>
<path d="M44154 11093 c-74 -80 -83 -357 -14 -469 44 -70 104 -52 141 43 19
49 23 77 23 183 0 106 -4 134 -23 182 -34 89 -81 111 -127 61z"/>
<path d="M44722 11113 c-25 -10 -62 -103 -73 -183 -14 -103 1 -220 36 -290 71
-140 175 -15 175 210 0 178 -61 294 -138 263z"/>
<path d="M13461 8873 c-121 -109 -223 -208 -227 -221 -3 -13 -1 -29 6 -37 28
-34 57 -16 226 136 239 215 272 246 279 268 7 22 -18 51 -45 51 -10 0 -117
-89 -239 -197z"/>
<path d="M12080 8255 c-7 -8 -10 -25 -6 -39 5 -20 28 -32 143 -76 299 -113
662 -227 970 -304 715 -180 1287 -193 1607 -37 134 65 193 130 154 169 -20 20
-41 14 -98 -29 -101 -77 -239 -126 -418 -150 -128 -17 -482 -6 -656 21 -445
68 -950 203 -1474 396 -96 35 -182 64 -192 64 -9 0 -23 -7 -30 -15z"/>
<path d="M8861 8180 c-198 -8 -211 -11 -211 -50 0 -44 -2 -44 365 -33 378 11
385 13 371 67 l-6 26 -163 -2 c-89 0 -249 -4 -356 -8z"/>
<path d="M9689 7515 c-9 -9 -305 -65 -434 -82 -95 -12 -201 -17 -395 -17 -262
-1 -314 4 -507 41 -91 17 -113 11 -113 -32 0 -35 18 -43 141 -64 359 -61 795
-49 1191 35 143 30 172 41 176 70 5 32 -40 69 -59 49z"/>
<path d="M19792 37311 c-125 -43 -225 -147 -263 -272 -18 -61 -20 -89 -17
-306 l3 -239 38 -76 c60 -123 165 -202 301 -227 79 -15 10212 -16 10301 -1
174 28 317 171 345 347 13 79 13 386 -1 459 -23 124 -119 247 -236 302 l-58
27 -5180 2 c-4995 2 -5182 2 -5233 -16z m10411 -85 c66 -25 150 -105 184 -174
l28 -57 0 -225 c0 -277 -7 -303 -99 -396 -45 -45 -76 -66 -116 -80 -54 -19
-160 -19 -5200 -19 l-5145 0 -67 33 c-81 40 -139 102 -168 180 -20 52 -21 73
-18 287 3 230 3 230 31 283 51 97 141 164 244 182 27 4 2350 7 5163 6 4957 -1
5116 -2 5163 -20z"/>
<path d="M10517 37151 c-294 -97 -397 -459 -200 -699 121 -148 352 -195 528
-108 322 159 322 623 -1 782 -67 34 -83 37 -172 41 -76 2 -110 -1 -155 -16z
m257 -91 c61 -23 136 -85 171 -140 30 -47 55 -132 55 -185 0 -53 -25 -138 -55
-185 -35 -56 -111 -117 -174 -141 -71 -27 -192 -23 -261 8 -71 32 -135 96
-172 171 -29 59 -33 76 -33 147 1 64 6 91 26 135 44 95 124 168 213 196 64 20
167 17 230 -6z"/>
<path d="M9412 35463 c-33 -13 -31 -40 18 -222 27 -100 54 -189 61 -197 25
-30 69 -9 69 34 0 45 -91 367 -108 380 -17 13 -20 13 -40 5z"/>
<path d="M15516 35399 c-169 -28 -318 -174 -355 -347 -8 -37 -11 -340 -11
-996 0 -917 1 -946 20 -1009 27 -87 92 -173 170 -225 122 -82 49 -76 1110 -80
653 -2 965 1 1009 8 175 30 325 173 361 343 7 36 10 354 8 1022 l-3 970 -34
70 c-63 128 -189 223 -326 245 -73 12 -1878 11 -1949 -1z m2017 -111 c78 -37
158 -120 189 -195 23 -57 23 -64 26 -483 1 -234 -1 -670 -6 -970 -7 -529 -8
-546 -29 -593 -32 -70 -113 -149 -186 -183 l-62 -29 -955 -3 c-934 -2 -956 -2
-1020 18 -111 34 -188 106 -235 220 -18 43 -19 85 -16 990 1 607 6 959 13 985
32 125 133 228 257 261 36 10 266 12 1006 11 l960 -2 58 -27z"/>
<path d="M17172 34753 c-21 -32 -220 -345 -441 -695 -231 -364 -412 -640 -422
-643 -10 -3 -27 -2 -37 4 -12 7 -69 143 -176 423 -87 227 -163 419 -168 426
-22 26 -78 8 -78 -25 0 -8 73 -204 162 -436 123 -320 169 -428 190 -448 48
-46 130 -48 180 -6 26 22 887 1376 895 1407 6 21 -22 50 -47 50 -12 0 -34 -21
-58 -57z"/>
<path d="M9945 34992 l-170 -47 0 -35 c0 -32 3 -35 31 -38 36 -3 358 80 380
99 17 14 18 41 2 57 -20 20 -64 13 -243 -36z"/>
<path d="M9152 34781 c-163 -45 -191 -58 -192 -88 0 -14 28 -43 42 -43 23 0
364 94 376 103 7 6 12 24 10 41 -3 27 -7 31 -33 33 -16 1 -108 -20 -203 -46z"/>
<path d="M9607 34653 c-4 -3 -7 -17 -7 -30 0 -33 89 -365 102 -380 16 -20 56
-15 68 7 9 16 1 57 -35 193 -57 217 -57 217 -93 217 -16 0 -32 -3 -35 -7z"/>
<path d="M19570 32456 c-102 -29 -192 -96 -249 -184 -72 -114 -82 -281 -23
-403 54 -112 168 -202 290 -228 39 -8 1693 -11 6225 -11 5530 0 6179 2 6232
15 211 55 344 261 307 477 -29 169 -155 302 -320 337 -81 17 -12400 14 -12462
-3z m12512 -114 c36 -18 81 -49 99 -69 117 -134 113 -329 -11 -453 -23 -23
-67 -54 -99 -69 l-56 -26 -6185 -3 -6185 -2 -69 21 c-58 17 -78 30 -126 77
-180 180 -107 471 136 546 43 13 763 14 6239 13 l6190 -2 67 -33z"/>
<path d="M15497 30850 c-169 -29 -325 -182 -357 -351 -6 -31 -10 -422 -10
-994 0 -916 1 -945 20 -1008 38 -124 136 -225 271 -280 l54 -22 950 -3 c661
-2 970 0 1014 8 177 30 325 172 361 343 7 36 10 354 8 1022 l-3 970 -34 70
c-40 81 -113 157 -188 198 -106 57 -104 57 -1113 56 -509 -1 -947 -5 -973 -9z
m2007 -109 c79 -32 165 -118 197 -197 23 -57 24 -68 27 -404 1 -190 -1 -626
-6 -970 -7 -612 -8 -626 -29 -673 -32 -70 -113 -149 -186 -183 l-62 -29 -980
0 -980 0 -57 27 c-108 50 -187 153 -208 269 -6 34 -7 401 -2 984 l7 930 26 56
c48 102 135 177 238 205 35 10 266 12 1001 11 l955 -2 59 -24z"/>
<path d="M17152 30203 c-21 -32 -220 -345 -441 -695 -231 -364 -412 -640 -422
-643 -10 -3 -27 -2 -37 4 -12 6 -70 144 -177 423 -87 227 -162 419 -168 426
-13 17 -52 15 -67 -3 -7 -8 -10 -25 -7 -37 12 -45 316 -829 330 -852 37 -55
136 -71 192 -29 25 18 905 1398 905 1420 0 18 -29 43 -50 43 -12 0 -34 -21
-58 -57z"/>
<path d="M20590 29801 c-12 -24 -4 -48 21 -61 11 -7 2213 -10 6193 -10 l6175
0 55 -20 c109 -41 196 -155 211 -275 16 -127 -67 -270 -193 -332 l-57 -28
-6265 -5 c-3446 -3 -6266 -6 -6267 -8 -8 -7 -1 -60 9 -70 16 -16 12435 -18
12519 -2 174 32 314 177 337 348 13 95 -1 182 -44 263 -44 83 -104 140 -194
183 l-65 31 -6212 3 c-6130 2 -6212 2 -6223 -17z"/>
<path d="M19560 27897 c-87 -29 -160 -85 -210 -159 -56 -85 -73 -150 -68 -263
3 -79 8 -102 36 -157 58 -119 177 -207 309 -228 86 -15 7511 -13 7588 1 78 14
166 60 219 113 226 225 130 610 -173 700 -50 15 -390 16 -3845 16 l-3791 -1
-65 -22z m7725 -99 c60 -32 124 -97 156 -158 20 -37 24 -60 24 -135 0 -75 -4
-98 -24 -140 -33 -66 -100 -131 -169 -163 l-57 -27 -3800 0 -3800 0 -57 28
c-74 36 -150 120 -174 189 -58 171 27 351 199 420 39 16 288 17 3847 15 l3805
-2 50 -27z"/>
<path d="M41508 26580 c-311 -65 -574 -231 -761 -478 -128 -170 -217 -372
-254 -576 -25 -134 -22 -362 6 -493 164 -781 941 -1209 1676 -924 595 230 934
909 774 1551 -29 116 -43 142 -76 138 -45 -5 -49 -26 -20 -129 36 -129 47
-205 47 -335 0 -484 -288 -935 -720 -1125 -249 -111 -547 -130 -795 -52 -231
72 -439 219 -586 413 -68 89 -163 285 -193 397 -130 493 44 1009 443 1309 393
295 910 320 1309 61 75 -49 99 -56 120 -35 29 29 14 57 -55 102 -140 90 -270
143 -432 176 -132 27 -357 27 -483 0z"/>
<path d="M37580 26464 c-13 -58 -28 -107 -34 -109 -6 -2 -54 -9 -106 -17 -173
-27 -288 -106 -357 -246 -36 -72 -38 -81 -38 -171 0 -83 4 -104 27 -154 41
-87 125 -167 283 -272 194 -128 240 -184 221 -273 -14 -59 -96 -112 -176 -112
-102 0 -300 77 -406 159 l-51 39 -68 -131 -68 -131 33 -28 c47 -39 171 -102
260 -132 42 -14 76 -31 78 -39 2 -12 -23 -129 -44 -198 -4 -13 15 -20 107 -38
61 -13 115 -19 119 -14 4 4 18 51 29 103 12 52 24 103 27 113 4 13 16 17 58
17 69 0 195 33 257 67 196 106 286 372 190 560 -42 84 -117 155 -269 256 -70
47 -151 110 -179 140 -46 48 -53 61 -53 96 0 56 44 105 108 121 88 21 246 -24
380 -107 40 -25 74 -44 76 -42 1 2 31 57 65 123 59 115 61 119 44 138 -23 26
-185 104 -246 119 -26 6 -50 15 -52 19 -3 5 6 53 19 108 l23 100 -106 21 c-58
12 -111 21 -117 21 -5 0 -21 -48 -34 -106z"/>
<path d="M28411 26383 c-84 -82 -6371 -7642 -6371 -7662 0 -37 29 -41 266 -39
l228 3 2940 3512 c1618 1931 2952 3523 2965 3537 50 53 52 51 316 -281 134
-170 1391 -1755 2793 -3523 l2549 -3215 321 -3 c313 -2 322 -2 322 17 0 23
-6169 7648 -6208 7673 -43 28 -78 23 -121 -19z"/>
<path d="M41485 25983 c-33 -14 -62 -26 -64 -28 -2 -2 9 -39 23 -82 24 -71 25
-78 9 -87 -43 -24 -105 -94 -133 -149 -26 -51 -30 -71 -30 -136 0 -90 22 -147
78 -204 60 -62 121 -79 312 -86 173 -7 194 -12 229 -57 34 -43 27 -80 -21
-129 -61 -60 -151 -89 -281 -89 l-98 -1 5 -35 c3 -19 8 -64 12 -100 3 -36 11
-68 18 -72 18 -12 77 -9 172 8 49 9 95 17 102 18 9 0 24 -27 40 -69 14 -38 27
-72 29 -74 2 -4 142 47 152 55 2 2 -9 40 -25 84 l-29 82 25 19 c62 49 112 107
138 158 23 47 27 69 27 136 0 71 -4 89 -33 147 -60 122 -115 147 -344 159
-181 9 -225 20 -253 63 -55 83 78 178 268 193 l80 6 -7 75 c-3 41 -6 86 -6 99
0 21 -4 23 -47 23 -45 0 -158 -21 -194 -35 -12 -4 -21 9 -40 65 -16 47 -29 70
-39 69 -8 0 -42 -12 -75 -26z"/>
<path d="M29441 25453 c7 -10 22 -28 33 -40 l19 -23 2232 0 c1979 0 2238 -2
2290 -15 101 -26 179 -91 224 -185 35 -74 37 -191 4 -262 -32 -70 -103 -141
-176 -174 l-62 -29 -1983 -5 -1983 -5 28 -37 28 -37 1980 2 1980 2 57 28 c322
158 327 603 8 760 l-65 32 -2314 3 c-2206 2 -2313 1 -2300 -15z"/>
<path d="M42107 22299 c-466 -51 -874 -341 -1091 -777 -237 -474 -192 -1056
115 -1485 199 -279 500 -471 849 -544 132 -27 383 -25 519 6 436 96 783 372
976 776 174 363 186 818 33 1180 -33 78 -35 80 -68 80 -34 0 -35 -1 -34 -35 1
-19 20 -87 42 -150 62 -175 77 -259 76 -445 0 -178 -14 -273 -65 -427 -225
-690 -948 -1074 -1614 -857 -201 66 -344 155 -501 313 -196 196 -306 399 -366
679 -17 81 -22 135 -22 262 0 127 5 181 22 262 62 288 191 523 392 717 235
225 508 345 828 363 198 11 398 -32 605 -130 119 -56 142 -56 142 -1 0 26 -8
33 -90 76 -213 111 -500 164 -748 137z"/>
<path d="M15500 21809 c-126 -25 -245 -121 -308 -248 l-37 -75 -6 -945 c-4
-552 -3 -973 2 -1011 27 -189 182 -343 374 -370 94 -13 1827 -13 1919 0 187
27 342 175 376 359 6 34 10 405 10 991 0 885 -1 942 -18 998 -47 148 -162 256
-317 297 -51 13 -185 15 -1005 14 -520 -1 -965 -5 -990 -10z m2030 -110 c78
-37 131 -87 171 -161 l34 -63 0 -980 0 -980 -26 -55 c-41 -85 -90 -135 -177
-177 l-76 -38 -965 0 c-900 0 -969 1 -1016 18 -99 35 -182 117 -223 219 -15
40 -16 120 -13 998 3 756 6 964 17 999 20 66 79 146 138 185 103 68 47 65
1116 63 l965 -2 55 -26z"/>
<path d="M41908 21599 c-43 -21 -78 -44 -78 -49 0 -6 16 -42 35 -81 l36 -70
-55 -59 c-30 -33 -67 -85 -83 -117 -24 -50 -28 -70 -28 -143 0 -102 23 -162
88 -228 77 -78 158 -93 417 -78 157 10 197 0 225 -55 61 -116 -106 -239 -358
-265 -43 -4 -67 -11 -64 -18 2 -6 13 -55 23 -110 l18 -99 76 6 c44 3 112 17
163 34 l87 29 37 -78 c20 -43 40 -78 45 -78 7 0 147 67 156 75 1 1 -16 41 -38
89 l-40 87 54 54 c32 31 68 82 87 122 31 62 34 75 33 158 0 68 -5 101 -21 135
-38 83 -77 126 -148 161 -59 29 -75 32 -158 33 -51 1 -141 -3 -202 -7 -139
-11 -181 0 -208 55 -16 33 -16 40 -4 70 30 73 153 137 301 159 l72 11 -20 105
-21 105 -65 -5 c-55 -4 -115 -20 -193 -52 -14 -6 -23 6 -52 69 -19 42 -36 76
-37 76 -2 -1 -38 -19 -80 -41z"/>
<path d="M28145 21373 c-222 -19 -515 -82 -720 -154 -429 -150 -783 -375
-1111 -703 -475 -477 -762 -1071 -839 -1736 -19 -174 -22 -989 -3 -1008 9 -9
671 -12 2919 -12 2630 0 2909 2 2923 16 14 13 16 61 16 367 0 605 -30 852
-147 1212 -356 1099 -1330 1888 -2483 2010 -120 13 -444 18 -555 8z m441 -87
c332 -15 717 -118 1059 -286 742 -363 1301 -1052 1505 -1853 74 -292 90 -460
90 -940 l0 -357 -2847 2 -2848 3 -3 295 c-6 550 30 835 148 1190 147 442 390
826 731 1156 433 418 971 682 1569 770 118 17 363 33 435 28 22 -2 94 -6 161
-8z"/>
<path d="M29493 20762 c-120 -120 -2060 -2240 -2067 -2257 -12 -30 7 -55 40
-55 32 0 2104 2251 2104 2286 0 22 -25 44 -49 44 -6 0 -19 -8 -28 -18z"/>
<path d="M29742 19803 c-20 -8 -1146 -1272 -1156 -1298 -12 -30 7 -55 40 -55
33 0 1174 1277 1174 1314 0 21 -26 49 -42 45 -2 0 -9 -3 -16 -6z"/>
<path d="M39231 20046 c-10 -11 28 -406 183 -1918 108 -1046 199 -1914 204
-1928 6 -19 14 -25 36 -25 16 0 33 7 38 15 11 17 -376 3823 -391 3850 -11 20
-55 24 -70 6z"/>
<path d="M41003 18848 c-11 -15 -744 -2665 -751 -2716 -7 -57 43 -85 72 -39 7
12 182 631 387 1375 283 1029 370 1358 362 1370 -13 21 -56 27 -70 10z"/>
<path d="M15527 17280 c-132 -23 -262 -122 -325 -249 l-37 -75 -8 -945 c-6
-681 -5 -965 3 -1015 29 -180 169 -327 348 -365 70 -15 1885 -16 1963 -1 185
35 331 186 360 372 6 39 9 426 7 1009 l-3 945 -38 76 c-65 132 -187 225 -328
247 -76 13 -1868 13 -1942 1z m2010 -114 c73 -34 153 -113 186 -183 l22 -48 0
-975 0 -975 -27 -57 c-37 -79 -98 -142 -177 -181 l-66 -32 -980 0 -980 0 -66
32 c-79 39 -140 102 -177 181 l-27 57 3 965 c4 931 5 966 24 1017 37 100 156
202 260 223 24 4 471 7 993 7 l950 -2 62 -29z"/>
<path d="M19730 14468 c-50 -14 -88 -44 -110 -88 -20 -39 -20 -67 -20 -2025 0
-2146 -3 -2011 52 -2061 63 -58 -9 -55 1161 -52 l1073 3 41 27 c24 16 49 44
62 70 l21 44 0 1973 c0 1937 0 1972 -20 2010 -24 48 -70 87 -118 101 -50 13
-2093 12 -2142 -2z m2161 -116 l29 -32 0 -1966 0 -1966 -29 -29 -29 -29 -1056
0 -1056 0 -32 29 -33 29 -3 1944 c-2 1390 0 1954 8 1981 7 25 22 45 43 58 31
19 55 19 1080 17 l1049 -3 29 -33z"/>
<path d="M20825 13093 c-357 -388 -654 -716 -659 -729 -12 -29 7 -54 40 -54
35 0 1334 1412 1334 1451 0 27 -16 39 -48 39 -9 0 -309 -318 -667 -707z"/>
<path d="M20694 11809 c-330 -368 -600 -679 -602 -690 -5 -27 15 -49 43 -49
16 0 151 145 541 582 676 757 684 766 684 782 0 20 -28 46 -50 46 -11 0 -239
-248 -616 -671z"/>
<path d="M23688 14467 c-48 -11 -116 -71 -139 -121 -18 -39 -19 -118 -19
-1989 0 -1612 2 -1953 13 -1980 21 -50 63 -93 111 -116 44 -20 58 -21 1074
-27 l1030 -7 55 27 c65 31 113 94 122 160 3 22 5 907 3 1966 l-3 1925 -22 40
c-51 95 -102 118 -268 122 -343 8 -1924 8 -1957 0z m2081 -106 c19 -9 44 -29
55 -44 l21 -28 3 -1931 c2 -2144 8 -1974 -64 -2019 -34 -20 -34 -20 -1046 -17
-998 3 -1014 3 -1048 23 -19 12 -43 36 -55 55 -20 35 -20 44 -23 1939 -1 1261
1 1916 8 1941 10 39 50 86 85 101 11 5 472 6 1025 3 906 -5 1008 -8 1039 -23z"/>
<path d="M24705 12203 c-323 -362 -594 -668 -602 -680 -26 -38 7 -84 48 -68
22 8 1192 1322 1203 1350 12 30 -7 55 -39 55 -18 0 -156 -149 -610 -657z"/>
</g>
</svg>
