<svg width="13" height="11" viewBox="0 0 13 11" fill="none" xmlns="http://www.w3.org/2000/svg">
<path d="M2.84276 10.354V3.45573H0.175757V10.354H2.84304H2.84276ZM1.50982 2.51405C2.43966 2.51405 3.01855 1.98434 3.01855 1.32236C3.00115 0.645294 2.43966 0.130371 1.5275 0.130371C0.614711 0.130371 0.0185547 0.645294 0.0185547 1.3223C0.0185547 1.98428 0.597237 2.51399 1.49234 2.51399H1.50961L1.50982 2.51405ZM4.31899 10.354H6.98578V6.50211C6.98578 6.29622 7.00319 6.08978 7.07365 5.94272C7.26635 5.53063 7.70517 5.10405 8.4421 5.10405C9.40689 5.10405 9.79308 5.73658 9.79308 6.66402V10.354H12.4598V6.39875C12.4598 4.27998 11.1443 3.29401 9.38963 3.29401C7.95107 3.29401 7.31926 3.98526 6.96824 4.45607H6.98599V3.45597H4.31913C4.35394 4.10311 4.31892 10.3542 4.31892 10.3542L4.31899 10.354Z" fill="white"/>
</svg>
