<svg width="18" height="11" viewBox="0 0 18 11" fill="none" xmlns="http://www.w3.org/2000/svg">
<path d="M17.3079 1.90398C17.1133 1.28234 16.5373 0.791945 15.8046 0.623873C14.4796 0.322266 9.16372 0.322266 9.16372 0.322266C9.16372 0.322266 3.85051 0.322266 2.52288 0.623873C1.79282 0.789642 1.21688 1.28004 1.0195 1.90398C0.665283 3.03213 0.665283 5.38743 0.665283 5.38743C0.665283 5.38743 0.665283 7.74273 1.0195 8.87089C1.21418 9.49252 1.79012 9.98292 2.52288 10.151C3.85051 10.4526 9.16372 10.4526 9.16372 10.4526C9.16372 10.4526 14.4796 10.4526 15.8046 10.151C16.5346 9.98522 17.1106 9.49482 17.3079 8.87089C17.6622 7.74273 17.6622 5.38743 17.6622 5.38743C17.6622 5.38743 17.6622 3.03213 17.3079 1.90398Z" fill="white"/>
<path d="M7.46566 7.55855L11.8812 5.38743L7.46566 3.21632V7.55855Z" fill="black"/>
</svg>
