<svg width="37" height="37" viewBox="0 0 37 37" fill="none" xmlns="http://www.w3.org/2000/svg">
<path d="M18.4999 0.583252C8.62784 0.583252 0.583252 8.62784 0.583252 18.4999C0.583252 28.372 8.62784 36.4166 18.4999 36.4166C28.372 36.4166 36.4166 28.372 36.4166 18.4999C36.4166 8.62784 28.372 0.583252 18.4999 0.583252ZM23.4987 19.4495L17.1741 25.7741C16.9053 26.0428 16.5649 26.1683 16.2245 26.1683C15.8841 26.1683 15.5437 26.0428 15.2749 25.7741C14.7553 25.2545 14.7553 24.3945 15.2749 23.8749L20.6499 18.4999L15.2749 13.1249C14.7553 12.6053 14.7553 11.7453 15.2749 11.2258C15.7945 10.7062 16.6545 10.7062 17.1741 11.2258L23.4987 17.5503C24.0362 18.0699 24.0362 18.9299 23.4987 19.4495Z" fill="#5236FF"/>
</svg>
